<svg width="20" height="20" viewBox="0 0 20 20" fill="none" xmlns="http://www.w3.org/2000/svg">
<path d="M9.52539 9.29993C10.2254 9.29993 10.8754 9.29993 11.5254 9.29993C11.5254 9.97493 11.5254 10.5999 11.5254 11.2749C10.8754 11.2749 10.2254 11.2749 9.55039 11.2749C9.55039 11.9499 9.55039 12.5999 9.55039 13.2749C8.87539 13.2749 8.22539 13.2749 7.55039 13.2749C7.55039 13.9499 7.55039 14.5999 7.55039 15.2749C6.87539 15.2749 6.22539 15.2749 5.52539 15.2749C5.52539 14.6249 5.52539 13.9749 5.52539 13.2999C4.85039 13.2999 4.20039 13.2999 3.52539 13.2999C3.52539 12.6249 3.52539 11.9749 3.52539 11.2999C2.85039 11.2999 2.20039 11.2999 1.52539 11.2999C1.52539 10.6249 1.52539 9.97493 1.52539 9.29993C2.17539 9.29993 2.82539 9.29993 3.50039 9.29993C3.50039 8.62493 3.50039 7.97493 3.50039 7.29993C4.17539 7.29993 4.82539 7.29993 5.50039 7.29993C5.50039 6.62493 5.50039 5.97493 5.50039 5.29993C6.17539 5.29993 6.82539 5.29993 7.52539 5.29993C7.52539 5.94993 7.52539 6.59993 7.52539 7.27493C8.20039 7.27493 8.85039 7.27493 9.52539 7.27493C9.52539 7.94993 9.52539 8.59993 9.52539 9.29993Z" fill="black"/>
<path d="M15.5262 11.2749C14.8762 11.2749 14.2262 11.2749 13.5762 11.2749C13.5762 10.6249 13.5762 9.97493 13.5762 9.29993C14.2262 9.29993 14.8512 9.29993 15.5262 9.29993C15.5262 9.94993 15.5262 10.5999 15.5262 11.2749Z" fill="black"/>
<path d="M15.525 3.17495C15.525 2.49995 15.525 1.84995 15.525 1.19995C14.85 1.19995 14.225 1.19995 13.575 1.19995C13.575 1.87495 13.575 2.49995 13.575 3.17495C12.9 3.17495 12.275 3.17495 11.625 3.17495C11.625 3.84995 11.625 4.47495 11.625 5.14995C12.275 5.14995 12.925 5.14995 13.575 5.14995C13.575 5.82495 13.575 6.44995 13.575 7.12495C14.225 7.12495 14.875 7.12495 15.525 7.12495C15.525 6.44995 15.525 5.79995 15.525 5.14995C16.175 5.14995 16.825 5.14995 17.475 5.14995C17.475 4.47495 17.475 3.82495 17.475 3.17495C16.8 3.17495 16.175 3.17495 15.525 3.17495Z" fill="black"/>
<path d="M15.525 15.1499C15.525 14.4749 15.525 13.8249 15.525 13.1749C14.85 13.1749 14.225 13.1749 13.575 13.1749C13.575 13.8499 13.575 14.4749 13.575 15.1499C12.9 15.1499 12.275 15.1499 11.625 15.1499C11.625 15.8249 11.625 16.4499 11.625 17.1249C12.275 17.1249 12.925 17.1249 13.575 17.1249C13.575 17.7999 13.575 18.4249 13.575 19.0999C14.225 19.0999 14.875 19.0999 15.525 19.0999C15.525 18.4249 15.525 17.7749 15.525 17.1249C16.175 17.1249 16.825 17.1249 17.475 17.1249C17.475 16.4499 17.475 15.7999 17.475 15.1499C16.825 15.1499 16.175 15.1499 15.525 15.1499Z" fill="black"/>
</svg>
