<svg width="24" height="25" viewBox="0 0 24 25" fill="none" xmlns="http://www.w3.org/2000/svg">
<g clip-path="url(#clip0_160_2777)">
<path d="M9.00293 17.8462V19.1962H10.3015V17.8462H9.00293Z" fill="#393831"/>
<path d="M10.3018 16.4956V17.8456H11.6004V16.4956H10.3018Z" fill="#393831"/>
<path d="M11.6006 15.1484V16.4985H12.8992V15.1484H11.6006Z" fill="#393831"/>
<path d="M14.1912 17.8412V16.4912H12.8926V17.8412H14.1912Z" fill="#393831"/>
<path d="M15.49 19.1962V17.8462H14.1914V19.1962H15.49Z" fill="#393831"/>
<path d="M7.70508 19.1914V20.5414H9.00369V19.1914H7.70508Z" fill="#393831"/>
<path d="M15.4902 19.1914V20.5414H16.7888V19.1914H15.4902Z" fill="#393831"/>
<path d="M6.1786 21.8919H5V3.62354H13.2888V4.80214H6.1786V21.8919Z" fill="#393831"/>
<path d="M19.9602 4.98242H14.6758V6.16103H19.9602V4.98242Z" fill="#393831"/>
<path d="M17.9042 3H16.7256V8.28443H17.9042V3Z" fill="#393831"/>
<path d="M19.4511 9.44775H18.2725V21.8917H19.4511V9.44775Z" fill="#393831"/>
</g>
<defs>
<clipPath id="clip0_160_2777">
<rect width="24" height="24" fill="white" transform="translate(0 0.195801)"/>
</clipPath>
</defs>
</svg>
