<svg width="24" height="25" viewBox="0 0 24 25" fill="none" xmlns="http://www.w3.org/2000/svg">
<g clip-path="url(#clip0_592_1191)">
<path d="M9.00293 17.8457V19.1957H10.3015V17.8457H9.00293Z" fill="#705D56"/>
<path d="M10.3018 16.4956V17.8456H11.6004V16.4956H10.3018Z" fill="#705D56"/>
<path d="M11.6006 15.1482V16.4982H12.8992V15.1482H11.6006Z" fill="#705D56"/>
<path d="M14.1912 17.841V16.491H12.8926V17.841H14.1912Z" fill="#705D56"/>
<path d="M15.49 19.1957V17.8457H14.1914V19.1957H15.49Z" fill="#705D56"/>
<path d="M7.70508 19.1914V20.5414H9.00369V19.1914H7.70508Z" fill="#705D56"/>
<path d="M15.4902 19.1914V20.5414H16.7888V19.1914H15.4902Z" fill="#705D56"/>
<path d="M6.1786 21.8917H5V3.62329H13.2888V4.8019H6.1786V21.8917Z" fill="#705D56"/>
<path d="M19.4516 9.44775H18.2729V21.8917H19.4516V9.44775Z" fill="#705D56"/>
<path d="M19.1885 5.6958L19.1885 4.34576L17.8899 4.34576L17.8899 5.6958L19.1885 5.6958Z" fill="#705D56"/>
<path d="M17.8896 7.0459L17.8896 5.69586L16.591 5.69586L16.591 7.0459L17.8896 7.0459Z" fill="#705D56"/>
<path d="M16.5908 8.39331L16.5908 7.04327L15.2922 7.04327L15.2922 8.39331L16.5908 8.39331Z" fill="#705D56"/>
<path d="M14.0002 5.7005L14.0002 7.05054L15.2988 7.05054L15.2988 5.7005L14.0002 5.7005Z" fill="#705D56"/>
<path d="M20.4863 4.3501L20.4863 3.00006L19.1877 3.00006L19.1877 4.3501L20.4863 4.3501Z" fill="#705D56"/>
</g>
<defs>
<clipPath id="clip0_592_1191">
<rect width="24" height="24" fill="white" transform="translate(0 0.195801)"/>
</clipPath>
</defs>
</svg>
