<svg width="50" height="40" viewBox="0 0 50 40" fill="none" xmlns="http://www.w3.org/2000/svg">
<g clip-path="url(#clip0_51_4272)">
<path d="M8.65027 10H11.5303V12.77H8.65027V10Z" fill="#D8A15D"/>
<path d="M5.76062 12.77H8.64062V15.54H5.76062V12.77Z" fill="#D8A15D"/>
<path d="M2.88074 15.54H5.76074V18.31H2.88074V15.54Z" fill="#D8A15D"/>
<path d="M-0.000116348 18.3101H2.87988V21.0801H-0.000116348V18.3101Z" fill="#D8A15D"/>
<path d="M5.75012 23.8398H2.87012L2.87012 21.0698H5.75012V23.8398Z" fill="#D8A15D"/>
<path d="M8.64074 26.6099H5.76074V23.8399H8.64074V26.6099Z" fill="#D8A15D"/>
<path d="M11.5206 29.3901H8.64062V26.6201H11.5206V29.3901Z" fill="#D8A15D"/>
<path d="M29.5303 18.3101H19.5303V21.0801H29.5303V18.3101Z" fill="#D8A15D"/>
<path d="M40.4103 10H37.5303V12.77H40.4103V10Z" fill="#D8A15D"/>
<path d="M43.2999 12.77H40.4199V15.54H43.2999V12.77Z" fill="#D8A15D"/>
<path d="M46.1798 15.54H43.2998V18.31H46.1798V15.54Z" fill="#D8A15D"/>
<path d="M49.0704 18.3101H46.1904V21.0801H49.0704V18.3101Z" fill="#D8A15D"/>
<path d="M43.3104 23.8398H46.1904V21.0698H43.3104V23.8398Z" fill="#D8A15D"/>
<path d="M40.4198 26.6099H43.2998V23.8399H40.4198V26.6099Z" fill="#D8A15D"/>
<path d="M37.5399 29.3901H40.4199V26.6201H37.5399V29.3901Z" fill="#D8A15D"/>
</g>
<defs>
<clipPath id="clip0_51_4272">
<rect width="49.07" height="39.39" fill="white"/>
</clipPath>
</defs>
</svg>
