<svg width="24" height="24" viewBox="0 0 24 24" fill="none" xmlns="http://www.w3.org/2000/svg">
<rect x="2" y="2" width="2.5" height="2.5" fill="#705D56"/>
<rect x="4.5" y="4.5" width="2.5" height="2.5" fill="#705D56"/>
<rect x="7" y="7" width="2.5" height="2.5" fill="#705D56"/>
<rect width="2.5" height="2.5" transform="matrix(-1 0 0 1 9.5 14.5)" fill="#705D56"/>
<rect width="2.5" height="2.5" transform="matrix(-1 0 0 1 7 17)" fill="#705D56"/>
<rect width="2.5" height="2.5" transform="matrix(-1 0 0 1 4.5 19.5)" fill="#705D56"/>
<rect width="2.5" height="2.5" transform="matrix(-1 0 0 1 22 2)" fill="#705D56"/>
<rect width="2.5" height="2.5" transform="matrix(-1 0 0 1 19.5 4.5)" fill="#705D56"/>
<rect width="2.5" height="2.5" transform="matrix(-1 0 0 1 17 7)" fill="#705D56"/>
<rect x="9.5" y="9.5" width="2.5" height="2.5" fill="#705D56"/>
<rect x="12" y="12" width="2.5" height="2.5" fill="#705D56"/>
<rect x="14.5" y="14.5" width="2.5" height="2.5" fill="#705D56"/>
<rect x="17" y="17" width="2.5" height="2.5" fill="#705D56"/>
<rect x="19.5" y="19.5" width="2.5" height="2.5" fill="#705D56"/>
</svg>
