<svg width="28" height="28" viewBox="0 0 28 28" fill="none" xmlns="http://www.w3.org/2000/svg">
<path d="M11.6993 7H13.9272V9.14286H11.6993V7Z" fill="black"/>
<path d="M9.46345 9.14282H11.6914V11.2857H9.46345V9.14282Z" fill="black"/>
<path d="M7.23543 11.2856H9.46338V13.4285H7.23543V11.2856Z" fill="black"/>
<path d="M5.00008 13.4285H7.22803V15.5713H5.00008V13.4285Z" fill="black"/>
<path d="M9.45598 17.7065H7.22803V15.5637H9.45598V17.7065Z" fill="black"/>
<path d="M11.6913 19.8494H9.46338V17.7065H11.6913V19.8494Z" fill="black"/>
<path d="M13.9194 22H11.6914V19.8571H13.9194V22Z" fill="black"/>
<path d="M20.6993 7H22.9272V9.14286H20.6993V7Z" fill="black"/>
<path d="M18.4635 9.14282H20.6914V11.2857H18.4635V9.14282Z" fill="black"/>
<path d="M16.2354 11.2856H18.4634V13.4285H16.2354V11.2856Z" fill="black"/>
<path d="M14.0074 13.4285H16.2354V15.5713H14.0074V13.4285Z" fill="black"/>
<path d="M18.456 17.7065H16.228V15.5637H18.456V17.7065Z" fill="black"/>
<path d="M20.6913 19.8494H18.4634V17.7065H20.6913V19.8494Z" fill="black"/>
<path d="M22.9194 22H20.6914V19.8571H22.9194V22Z" fill="black"/>
</svg>
