<svg width="28" height="28" viewBox="0 0 28 28" fill="none" xmlns="http://www.w3.org/2000/svg">
<path d="M16.228 7H14V9.14286H16.228V7Z" fill="black"/>
<path d="M18.4638 9.14282H16.2358V11.2857H18.4638V9.14282Z" fill="black"/>
<path d="M20.6918 11.2856H18.4639V13.4285H20.6918V11.2856Z" fill="black"/>
<path d="M22.9272 13.4285H20.6992V15.5713H22.9272V13.4285Z" fill="black"/>
<path d="M18.4713 17.7065H20.6992V15.5637H18.4713V17.7065Z" fill="black"/>
<path d="M16.2359 19.8494H18.4639V17.7065H16.2359V19.8494Z" fill="black"/>
<path d="M14.0079 22H16.2358V19.8571H14.0079V22Z" fill="black"/>
<path d="M7.22795 7H5V9.14286H7.22795V7Z" fill="black"/>
<path d="M9.46379 9.14282H7.23584V11.2857H9.46379V9.14282Z" fill="black"/>
<path d="M11.6918 11.2856H9.46387V13.4285H11.6918V11.2856Z" fill="black"/>
<path d="M13.9198 13.4285H11.6919V15.5713H13.9198V13.4285Z" fill="black"/>
<path d="M9.47127 17.7065H11.6992V15.5637H9.47127V17.7065Z" fill="black"/>
<path d="M7.23591 19.8494H9.46387V17.7065H7.23591V19.8494Z" fill="black"/>
<path d="M5.00789 22H7.23584V19.8571H5.00789V22Z" fill="black"/>
</svg>
