<svg width="24" height="25" viewBox="0 0 24 25" fill="none" xmlns="http://www.w3.org/2000/svg">
<g clip-path="url(#clip0_160_2756)">
<path d="M17.6436 6.21777V7.35577H18.7396V6.21777H17.6436Z" fill="#393831"/>
<path d="M18.7393 5.08008V6.21808H19.8353V5.08008H18.7393Z" fill="#393831"/>
<path d="M19.834 3.93994V5.07794H20.93V3.93994H19.834Z" fill="#393831"/>
<path d="M22.0218 6.21417V5.07617H20.9258V6.21417H22.0218Z" fill="#393831"/>
<path d="M23.1155 7.35773V6.21973H22.0195V7.35773H23.1155Z" fill="#393831"/>
<path d="M23.1194 16.5101V15.3721H22.0234V16.5101H23.1194Z" fill="#393831"/>
<path d="M22.0237 17.6483V16.5103H20.9277V17.6483H22.0237Z" fill="#393831"/>
<path d="M20.9271 18.7879V17.6499H19.8311V18.7879H20.9271Z" fill="#393831"/>
<path d="M18.7412 16.5142V17.6522H19.8372V16.5142H18.7412Z" fill="#393831"/>
<path d="M17.6455 15.3701V16.5081H18.7415V15.3701H17.6455Z" fill="#393831"/>
<path d="M19.834 6.21777V16.5118H20.93V6.21777H19.834Z" fill="#393831"/>
<path d="M0.87207 3.93994V7.75394H1.97207V5.03994H7.69207V19.9259H5.33007V21.0259H11.1561V19.9259H8.79207V5.03994H14.5121V7.75394H15.6121V3.93994H0.87207Z" fill="#393831"/>
</g>
<defs>
<clipPath id="clip0_160_2756">
<rect width="24" height="24" fill="white" transform="translate(0 0.195801)"/>
</clipPath>
</defs>
</svg>
