<svg width="36" height="36" viewBox="0 0 36 36" fill="none" xmlns="http://www.w3.org/2000/svg">
<path d="M17.7307 12.9979C15.2519 12.9979 13.2289 15.0209 13.2289 17.4997C13.2289 19.9786 15.2519 22.0016 17.7307 22.0016C20.2096 22.0016 22.2326 19.9786 22.2326 17.4997C22.2326 15.0209 20.2096 12.9979 17.7307 12.9979ZM31.2329 17.4997C31.2329 15.6355 31.2498 13.7882 31.1451 11.9273C31.0404 9.76592 30.5473 7.84766 28.9668 6.26712C27.3828 4.6832 25.468 4.19351 23.3065 4.08881C21.4423 3.98412 19.595 4.001 17.7341 4.001C15.8699 4.001 14.0226 3.98412 12.1617 4.08881C10.0003 4.19351 8.08203 4.68658 6.50149 6.26712C4.91758 7.85103 4.42788 9.76592 4.32319 11.9273C4.21849 13.7916 4.23538 15.6389 4.23538 17.4997C4.23538 19.3606 4.21849 21.2113 4.32319 23.0722C4.42788 25.2336 4.92096 27.1518 6.50149 28.7324C8.08541 30.3163 10.0003 30.806 12.1617 30.9107C14.0259 31.0154 15.8733 30.9985 17.7341 30.9985C19.5983 30.9985 21.4457 31.0154 23.3065 30.9107C25.468 30.806 27.3862 30.3129 28.9668 28.7324C30.5507 27.1485 31.0404 25.2336 31.1451 23.0722C31.2531 21.2113 31.2329 19.364 31.2329 17.4997ZM17.7307 24.4264C13.8976 24.4264 10.8041 21.3329 10.8041 17.4997C10.8041 13.6666 13.8976 10.5731 17.7307 10.5731C21.5639 10.5731 24.6574 13.6666 24.6574 17.4997C24.6574 21.3329 21.5639 24.4264 17.7307 24.4264ZM24.9411 11.9071C24.0461 11.9071 23.3234 11.1843 23.3234 10.2894C23.3234 9.39442 24.0461 8.6717 24.9411 8.6717C25.8361 8.6717 26.5588 9.39442 26.5588 10.2894C26.5591 10.5019 26.5174 10.7124 26.4362 10.9088C26.355 11.1052 26.2359 11.2836 26.0856 11.4339C25.9353 11.5841 25.7569 11.7033 25.5605 11.7845C25.3641 11.8657 25.1536 11.9073 24.9411 11.9071Z" fill="black"/>
</svg>
