<svg width="24" height="25" viewBox="0 0 24 25" fill="none" xmlns="http://www.w3.org/2000/svg">
<g clip-path="url(#clip0_160_2813)">
<path d="M4.97633 7.72607H3.67188V17.0267H4.97633V7.72607Z" fill="#000"/>
<path d="M6.31129 18.2861H5.00684V19.56H6.31129V18.2861Z" fill="#000"/>
<path d="M18.076 19.562H6.31348V20.8665H18.076V19.562Z" fill="#000"/>
<path d="M19.3674 17.0195L20.6719 17.0195L20.6719 7.72506L19.3674 7.72506L19.3674 17.0195Z" fill="#000"/>
<path d="M18.0334 19.5542L19.3379 19.5542L19.3379 18.2804L18.0334 18.2804L18.0334 19.5542Z" fill="#000"/>
<path d="M8.91676 18.2798H7.6123V19.5536H8.91676V18.2798Z" fill="#000"/>
<path d="M11.5271 18.2798H10.2227V19.5536H11.5271V18.2798Z" fill="#000"/>
<path d="M14.1355 18.2798H12.8311V19.5536H14.1355V18.2798Z" fill="#000"/>
<path d="M16.7468 18.2798H15.4424V19.5536H16.7468V18.2798Z" fill="#000"/>
<path d="M5.01059 12.563L19.3779 12.563V11.2585L5.01059 11.2585V12.563Z" fill="#000"/>
<path d="M18.053 6.53955H19.3574V5.1759H18.053V6.53955Z" fill="#000"/>
<path d="M6.29119 5.17432L18.0537 5.17432V3.86986L6.29119 3.86986V5.17432Z" fill="#000"/>
<path d="M6.33375 5.18262H5.0293V6.54627H6.33375V5.18262Z" fill="#000"/>
<path d="M14.1379 18.2793H15.4424L15.4424 6.53923H14.1379L14.1379 18.2793Z" fill="#000"/>
<path d="M8.9182 18.2793H10.2227L10.2227 6.53923H8.9182L8.9182 18.2793Z" fill="#000"/>
<path d="M8.91871 5.17432H7.61426V6.53797H8.91871V5.17432Z" fill="#000"/>
<path d="M11.5291 5.17432H10.2246V6.53797H11.5291V5.17432Z" fill="#000"/>
<path d="M14.1375 5.17432H12.833V6.53797H14.1375V5.17432Z" fill="#000"/>
<path d="M16.7488 5.17432H15.4443V6.53797H16.7488V5.17432Z" fill="#000"/>
</g>
<defs>
<clipPath id="clip0_160_2813">
<rect width="24" height="24" fill="white" transform="translate(0 0.195801)"/>
</clipPath>
</defs>
</svg>
