<svg width="36" height="36" viewBox="0 0 36 36" fill="none" xmlns="http://www.w3.org/2000/svg">
<path d="M18 5C10.3 5 4 10.2 4 16.5C4 22.2 9 26.9 15.7 27.8C16.2 27.9 16.8 28.1 16.9 28.5C17 28.9 17 29.4 16.9 29.8C16.9 29.8 16.7 30.8 16.7 31C16.6 31.4 16.4 32.4 17.9 31.8C19.4 31.2 26 27 28.9 23.6C30.9 21.3 31.9 19.1 31.9 16.5C32 10.2 25.7 5 18 5ZM13.1 19.9C13.1 20.1 13 20.2 12.8 20.2H8.9C8.7 20.2 8.6 20.1 8.6 19.9V13.7C8.6 13.5 8.7 13.4 8.9 13.4H9.9C10.1 13.4 10.2 13.5 10.2 13.7V18.6H12.9C13.1 18.6 13.2 18.7 13.2 18.9V19.9H13.1ZM15.4 19.9C15.4 20.1 15.3 20.2 15.1 20.2H14.1C13.9 20.2 13.8 20.1 13.8 19.9V13.7C13.8 13.5 13.9 13.4 14.1 13.4H15.1C15.3 13.4 15.4 13.5 15.4 13.7V19.9ZM22.2 19.9C22.2 20.1 22.1 20.2 21.9 20.2H20.9C20.8 20.2 20.7 20.2 20.7 20.1L17.9 16.3V20C17.9 20.2 17.8 20.3 17.6 20.3H16.6C16.4 20.3 16.3 20.2 16.3 20V13.8C16.3 13.6 16.4 13.5 16.6 13.5H17.6C17.7 13.5 17.8 13.5 17.8 13.6L20.6 17.4V13.7C20.6 13.5 20.7 13.4 20.9 13.4H21.9C22.1 13.4 22.2 13.5 22.2 13.7V19.9ZM27.6 14.7C27.6 14.9 27.5 15 27.3 15H24.6V16H27.3C27.5 16 27.6 16.1 27.6 16.3V17.3C27.6 17.5 27.5 17.6 27.3 17.6H24.6V18.6H27.3C27.5 18.6 27.6 18.7 27.6 18.9V19.9C27.6 20.1 27.5 20.2 27.3 20.2H23.4C23.2 20.2 23.1 20.1 23.1 19.9V13.7C23.1 13.6 23.2 13.4 23.4 13.4H27.3C27.5 13.4 27.6 13.5 27.6 13.7V14.7Z" fill="black"/>
</svg>
