<svg width="240" height="91" viewBox="0 0 240 91" fill="none" xmlns="http://www.w3.org/2000/svg">
<path d="M159.67 39.2876V36.7217H157.104V39.2876H149.406V57.245H172.496V39.2876H159.67ZM169.934 54.6791H151.976V49.5472H169.934V54.6791ZM169.934 46.9812H151.976V41.8493H169.934V46.9812Z" fill="#705D56"/>
<path d="M159.363 18.7646H156.797H146.537V21.3306H156.797V31.5901H154.231V34.1561H156.797H159.363V31.5901V21.3306V18.7646Z" fill="#705D56"/>
<path d="M177.977 18.7646H175.411H162.586V21.3306H175.411V31.5901H172.845V34.1561H175.411H177.977V31.5901V21.3306V18.7646Z" fill="#705D56"/>
<path d="M146.532 23.7979H143.949V26.3809H146.532V23.7979Z" fill="#D8A15D"/>
<path d="M149.115 26.3809H146.532V28.9682H149.115V26.3809Z" fill="#D8A15D"/>
<path d="M151.702 28.9678H149.119V31.5508H151.702V28.9678Z" fill="#D8A15D"/>
<path d="M149.119 31.5508H146.536V34.1338H149.119V31.5508Z" fill="#D8A15D"/>
<path d="M146.532 34.1387H143.949V36.726H146.532V34.1387Z" fill="#D8A15D"/>
<path d="M167.556 23.7979H164.973V26.3809H167.556V23.7979Z" fill="#D8A15D"/>
<path d="M170.139 26.3809H167.556V28.9682H170.139V26.3809Z" fill="#D8A15D"/>
<path d="M172.726 28.9678H170.143V31.5508H172.726V28.9678Z" fill="#D8A15D"/>
<path d="M170.139 31.5508H167.556V34.1338H170.139V31.5508Z" fill="#D8A15D"/>
<path d="M167.556 34.1387H164.973V36.726H167.556V34.1387Z" fill="#D8A15D"/>
<path d="M52.3861 57.2452V54.6792H70.3435V44.4154H57.518V41.8494H70.3435V31.5856H60.0797V34.1516H57.5137V36.7175H54.9478V39.2835H52.3818V36.7175H54.9478V34.1516H57.5137V29.0197H60.0797V21.3218H62.6456V29.0197H70.3435V18.7559H72.9095V29.0197H88.3009V31.5856H72.9095V41.8494H85.735V44.4154H72.9095V54.6792H90.8669V57.2452H52.3861Z" fill="#705D56"/>
<path d="M184.458 57.2452V54.6792H202.416V44.4154H189.59V41.8494H202.416V31.5856H192.152V34.1516H189.586V36.7175H187.02V39.2835H184.454V36.7175H187.02V34.1516H189.586V29.0197H192.152V21.3218H194.718V29.0197H202.416V18.7559H204.982V29.0197H220.373V31.5856H204.982V41.8494H217.807V44.4154H204.982V54.6792H222.939V57.2452H184.458Z" fill="#705D56"/>
<path d="M27.5982 18.7646H25.0322V39.288H27.5982V18.7646Z" fill="#705D56"/>
<path d="M37.857 46.9863H35.291V49.5523H37.857V46.9863Z" fill="#D8A15D"/>
<path d="M14.7681 52.1133H12.2021V57.2452H14.7681V52.1133Z" fill="#D8A15D"/>
<path d="M22.4659 49.5479H17.334V52.1138H22.4659V49.5479Z" fill="#D8A15D"/>
<path d="M22.4663 44.4199H19.9004V49.5518H22.4663V44.4199Z" fill="#D8A15D"/>
<path d="M25.0318 39.2881H22.4658V44.42H25.0318V39.2881Z" fill="#D8A15D"/>
<path d="M30.1636 39.2881H27.5977V46.986H30.1636V39.2881Z" fill="#D8A15D"/>
<path d="M32.7251 44.4199H30.1592V46.9859H32.7251V44.4199Z" fill="#D8A15D"/>
<path d="M27.5982 39.2881H25.0322V41.854H27.5982V39.2881Z" fill="#D8A15D"/>
<path d="M42.9854 54.7305H37.8535V57.2964H42.9854V54.7305Z" fill="#D8A15D"/>
<path d="M40.4195 49.5479H37.8535V54.731H40.4195V49.5479Z" fill="#D8A15D"/>
<path d="M35.2915 44.4199H32.7256V46.9859H35.2915V44.4199Z" fill="#D8A15D"/>
<path d="M17.3345 52.1133H14.7686V54.6792H17.3345V52.1133Z" fill="#D8A15D"/>
<path d="M62.0742 83.2693V70.0596H63.3935V81.9501H69.9984V83.2693H62.0742Z" fill="#705D56"/>
<path d="M84.0275 75.3412V83.2654H82.7082V75.3412H80.0654V74.0219H82.7082V70.0599H84.0275V74.0219H86.6703V75.3412H84.0275ZM84.0275 70.0556V68.7363H86.6703V70.0556H84.0275Z" fill="#705D56"/>
<path d="M89.2197 81.9498V74.0257H90.539V76.6685H95.8246V74.0257H97.1439V77.9878H90.539V81.9498H89.2197ZM90.539 72.7021H95.8246V74.0214H90.539V72.7021ZM95.8246 81.9498V83.2691H90.539V81.9498H95.8246V80.6306H97.1439V81.9498H95.8246Z" fill="#705D56"/>
<path d="M112.108 71.3788V83.2693H110.789V71.3788H106.827V70.0596H116.075V71.3788H112.113H112.108Z" fill="#705D56"/>
<path d="M117.915 72.7025V74.0218H119.234V75.341H117.915V83.2652H116.596V72.6982H117.915V72.7025ZM119.234 72.7025H123.196V74.0218H119.234V72.7025ZM124.52 74.0218V76.6646H123.201V74.0218H124.52Z" fill="#705D56"/>
<path d="M127.679 75.341H126.359V74.0218H127.679V75.341ZM126.359 81.9459V77.9839H127.679V81.9459H126.359ZM127.679 72.6982H132.964V74.0175H127.679V72.6982ZM131.641 81.9459V80.6267H132.96V77.9839H127.674V76.6646H132.96V74.0218H134.279V83.2695H132.96V81.9502H131.641V81.9459ZM131.641 81.9459V83.2652H127.679V81.9459H131.641Z" fill="#705D56"/>
<path d="M146.067 72.7025V74.0218H147.387V75.341H146.067V83.2652H144.748V72.6982H146.067V72.7025ZM147.387 72.7025H151.349V74.0218H147.387V72.7025ZM152.672 74.0218V83.2695H151.353V74.0218H152.672Z" fill="#705D56"/>
<path d="M154.828 81.9498V74.0257H156.147V76.6685H161.433V74.0257H162.752V77.9878H156.147V81.9498H154.828ZM156.147 72.7021H161.433V74.0214H156.147V72.7021ZM161.433 81.9498V83.2691H156.147V81.9498H161.433V80.6306H162.752V81.9498H161.433Z" fill="#705D56"/>
<path d="M165.147 81.9498V74.0257H166.467V76.6685H171.752V74.0257H173.072V77.9878H166.467V81.9498H165.147ZM166.467 72.7021H171.752V74.0214H166.467V72.7021ZM171.752 81.9498V83.2691H166.467V81.9498H171.752V80.6306H173.072V81.9498H171.752Z" fill="#705D56"/>
<path d="M76.0913 72.7021H74.7678V74.0214V81.9498H72.125V83.2691H78.7299V81.9498H76.0913V72.7021Z" fill="#D8A15D"/>
<path d="M77.4104 68.7362V67.4169H76.0911V66.0977H74.7676V71.379V72.7025H76.0911V71.379H77.4104V70.0597H78.7297V68.7362H77.4104Z" fill="#D8A15D"/>
<path d="M139.984 72.7021H138.664V74.0214V81.9498H136.021V83.2691H142.626V81.9498H139.984V72.7021Z" fill="#D8A15D"/>
<path d="M141.303 68.7362V67.4169H139.983V66.0977H138.664V71.379V72.7025H139.983V71.379H141.303V70.0597H142.626V68.7362H141.303Z" fill="#D8A15D"/>
<path d="M102.843 26.4625H131.06V31.5902H133.626V23.8966H118.235V18.7646H115.669V23.8966H100.277V31.5902H102.843V26.4625Z" fill="#705D56"/>
<path d="M128.494 34.1563V29.0244H105.405V34.1563H97.707V36.7223H105.405V39.2882H102.839V52.1137H105.405L131.21 52.0283L131.056 39.284H128.49V36.718H136.188V34.1521H128.49L128.494 34.1563ZM118.235 31.5904H125.933V34.1563H118.235V31.5904ZM118.235 36.7223H125.933V39.2882H118.235V36.7223ZM107.971 31.5904H115.669V34.1563H107.971V31.5904ZM107.971 36.7223H115.669V39.2882H107.971V36.7223ZM128.494 49.5478H105.405V46.9818H128.494V49.5478ZM128.494 44.4159H105.405V41.8499H128.494V44.4159Z" fill="#705D56"/>
<path d="M102.843 52.1133H100.277V57.2452H102.843V52.1133Z" fill="#705D56"/>
<path d="M105.409 52.1133H102.843V54.6792H105.409V52.1133Z" fill="#705D56"/>
<path d="M131.213 52.0322H128.647V54.5982H131.213V52.0322Z" fill="#705D56"/>
<path d="M133.779 54.5938H128.647V57.1597H133.779V54.5938Z" fill="#705D56"/>
<path d="M217.209 7.53125H214.763V9.36712H217.209V7.53125Z" fill="#705D56"/>
<path d="M222.346 8.75684H219.899V9.97791H222.346V8.75684Z" fill="#705D56"/>
<path d="M232.613 11.8132V10.5879H230.167V12.4238H232.003V11.8132H232.613Z" fill="#705D56"/>
<path d="M217.209 9.97754H214.763V12.4239H217.209V9.97754Z" fill="#705D56"/>
<path d="M211.074 4.00879V14.8661H236.303V4.00879H211.074ZM217.82 9.36698H217.209V9.97752H217.82V12.4239H217.209V13.0345H214.153V6.92057H217.209V7.53111H217.82V9.36698ZM222.956 10.588H219.899V12.4239H222.346V11.8134H222.956V12.4239H222.346V13.0345H219.899V12.4239H219.289V8.75645H219.899V8.14591H222.346V8.75645H222.956V10.5923V10.588ZM227.482 9.36698H226.261V12.4239H227.482V13.0345H226.261V12.4239H225.65V9.36698H224.429V8.75645H225.65V6.92057H226.261V8.75645H227.482V9.36698ZM233.229 13.0345H232.618V12.4239H232.007V13.0345H230.172V12.4239H229.561V10.588H230.172V9.97752H232.618V8.75645H230.172V9.36698H229.561V8.75645H230.172V8.14591H232.618V8.75645H233.229V13.0345Z" fill="#705D56"/>
</svg>
