<svg width="320" height="40" viewBox="0 0 320 40" fill="none" xmlns="http://www.w3.org/2000/svg">
<path d="M133.097 20.832V18.541H130.806V20.832H123.933V36.8655H144.548V20.832H133.097ZM142.261 34.5744H126.227V29.9924H142.261V34.5744ZM142.261 27.7013H126.227V23.1193H142.261V27.7013Z" fill="#705D56"/>
<path d="M132.821 2.50781H130.53H121.37V4.79884H130.53V13.9592H128.239V16.2502H130.53H132.821V13.9592V4.79884V2.50781Z" fill="#705D56"/>
<path d="M149.443 2.50781H147.152H135.7V4.79884H147.152V13.9592H144.861V16.2502H147.152H149.443V13.9592V4.79884V2.50781Z" fill="#705D56"/>
<path d="M121.367 7.00195H119.061V9.30823H121.367V7.00195Z" fill="#D8A15D"/>
<path d="M123.673 9.30859H121.367V11.6187H123.673V9.30859Z" fill="#D8A15D"/>
<path d="M125.983 11.6182H123.677V13.9244H125.983V11.6182Z" fill="#D8A15D"/>
<path d="M123.677 13.9248H121.371V16.2311H123.677V13.9248Z" fill="#D8A15D"/>
<path d="M121.367 16.2344H119.061V18.5445H121.367V16.2344Z" fill="#D8A15D"/>
<path d="M140.137 7.00195H137.831V9.30823H140.137V7.00195Z" fill="#D8A15D"/>
<path d="M142.444 9.30859H140.138V11.6187H142.444V9.30859Z" fill="#D8A15D"/>
<path d="M144.754 11.6182H142.447V13.9244H144.754V11.6182Z" fill="#D8A15D"/>
<path d="M142.444 13.9248H140.138V16.2311H142.444V13.9248Z" fill="#D8A15D"/>
<path d="M140.137 16.2344H137.831V18.5445H140.137V16.2344Z" fill="#D8A15D"/>
<path d="M37.3075 36.8655V34.5744H53.3409V25.4103H41.8896V23.1193H53.3409V13.9552H44.1768V16.2462H41.8858V18.5372H39.5947V20.8282H37.3037V18.5372H39.5947V16.2462H41.8858V11.6641H44.1768V4.79103H46.4678V11.6641H53.3409V2.5H55.632V11.6641H69.3743V13.9552H55.632V23.1193H67.0833V25.4103H55.632V34.5744H71.6654V36.8655H37.3075Z" fill="#705D56"/>
<path d="M155.228 36.8655V34.5744H171.262V25.4103H159.81V23.1193H171.262V13.9552H162.098V16.2462H159.807V18.5372H157.516V20.8282H155.225V18.5372H157.516V16.2462H159.807V11.6641H162.098V4.79103H164.389V11.6641H171.262V2.5H173.553V11.6641H187.295V13.9552H173.553V23.1193H185.004V25.4103H173.553V34.5744H189.586V36.8655H155.228Z" fill="#705D56"/>
<path d="M15.1748 2.50781H12.8838V20.8322H15.1748V2.50781Z" fill="#705D56"/>
<path d="M24.335 27.7051H22.0439V29.9961H24.335V27.7051Z" fill="#D8A15D"/>
<path d="M3.71974 32.2832H1.42871V36.8653H3.71974V32.2832Z" fill="#D8A15D"/>
<path d="M10.5928 29.9922H6.01074V32.2832H10.5928V29.9922Z" fill="#D8A15D"/>
<path d="M10.5928 25.4141H8.30176V29.9961H10.5928V25.4141Z" fill="#D8A15D"/>
<path d="M12.8838 20.832H10.5928V25.4141H12.8838V20.832Z" fill="#D8A15D"/>
<path d="M17.4658 20.832H15.1748V27.7051H17.4658V20.832Z" fill="#D8A15D"/>
<path d="M19.7529 25.4141H17.4619V27.7051H19.7529V25.4141Z" fill="#D8A15D"/>
<path d="M15.1748 20.832H12.8838V23.1231H15.1748V20.832Z" fill="#D8A15D"/>
<path d="M28.9131 34.6201H24.3311V36.9111H28.9131V34.6201Z" fill="#D8A15D"/>
<path d="M26.6221 29.9922H24.3311V34.62H26.6221V29.9922Z" fill="#D8A15D"/>
<path d="M22.044 25.4141H19.7529V27.7051H22.044V25.4141Z" fill="#D8A15D"/>
<path d="M6.01076 32.2832H3.71973V34.5742H6.01076V32.2832Z" fill="#D8A15D"/>
<path d="M82.3584 9.3809H107.552V13.9592H109.843V7.08987H96.1008V2.50781H93.8098V7.08987H80.0674V13.9592H82.3584V9.3809Z" fill="#705D56"/>
<path d="M105.261 16.25V11.668H84.6456V16.25H77.7725V18.5411H84.6456V20.8321H82.3545V32.2834H84.6456L107.685 32.2072L107.548 20.8283H105.257V18.5372H112.13V16.2462H105.257L105.261 16.25ZM96.1007 13.959H102.974V16.25H96.1007V13.959ZM96.1007 18.5411H102.974V20.8321H96.1007V18.5411ZM86.9366 13.959H93.8097V16.25H86.9366V13.959ZM86.9366 18.5411H93.8097V20.8321H86.9366V18.5411ZM105.261 29.9924H84.6456V27.7014H105.261V29.9924ZM105.261 25.4103H84.6456V23.1193H105.261V25.4103Z" fill="#705D56"/>
<path d="M82.3584 32.2832H80.0674V36.8653H82.3584V32.2832Z" fill="#705D56"/>
<path d="M84.6494 32.2832H82.3584V34.5742H84.6494V32.2832Z" fill="#705D56"/>
<path d="M107.689 32.2109H105.398V34.502H107.689V32.2109Z" fill="#705D56"/>
<path d="M109.98 34.498H105.398V36.7891H109.98V34.498Z" fill="#705D56"/>
<path d="M200.714 36.8009V22.8086H202.111V35.4035H209.107V36.8009H200.714Z" fill="#705D56"/>
<path d="M223.968 28.4024V36.796H222.571V28.4024H219.771V27.005H222.571V22.8082H223.968V27.005H226.768V28.4024H223.968ZM223.968 22.8037V21.4062H226.768V22.8037H223.968Z" fill="#705D56"/>
<path d="M229.468 35.403V27.0094H230.865V29.8087H236.464V27.0094H237.861V31.2062H230.865V35.403H229.468ZM230.865 25.6074H236.464V27.0048H230.865V25.6074ZM236.464 35.403V36.8004H230.865V35.403H236.464V34.0055H237.861V35.403H236.464Z" fill="#705D56"/>
<path d="M253.712 24.206V36.8009H252.315V24.206H248.118V22.8086H257.914V24.206H253.717H253.712Z" fill="#705D56"/>
<path d="M259.862 25.6071V27.0045H261.26V28.4019H259.862V36.7955H258.465V25.6025H259.862V25.6071ZM261.26 25.6071H265.456V27.0045H261.26V25.6071ZM266.858 27.0045V29.8039H265.461V27.0045H266.858Z" fill="#705D56"/>
<path d="M270.205 28.4019H268.808V27.0045H270.205V28.4019ZM268.808 35.3981V31.2013H270.205V35.3981H268.808ZM270.205 25.6025H275.804V27H270.205V25.6025ZM274.402 35.3981V34.0007H275.799V31.2013H270.201V29.8039H275.799V27.0045H277.197V36.8H275.799V35.4026H274.402V35.3981ZM274.402 35.3981V36.7955H270.205V35.3981H274.402Z" fill="#705D56"/>
<path d="M289.684 25.6071V27.0045H291.081V28.4019H289.684V36.7955H288.286V25.6025H289.684V25.6071ZM291.081 25.6071H295.278V27.0045H291.081V25.6071ZM296.68 27.0045V36.8H295.282V27.0045H296.68Z" fill="#705D56"/>
<path d="M298.963 35.403V27.0094H300.36V29.8087H305.959V27.0094H307.356V31.2062H300.36V35.403H298.963ZM300.36 25.6074H305.959V27.0048H300.36V25.6074ZM305.959 35.403V36.8004H300.36V35.403H305.959V34.0055H307.356V35.403H305.959Z" fill="#705D56"/>
<path d="M309.894 35.403V27.0094H311.291V29.8087H316.89V27.0094H318.287V31.2062H311.291V35.403H309.894ZM311.291 25.6074H316.89V27.0048H311.291V25.6074ZM316.89 35.403V36.8004H311.291V35.403H316.89V34.0055H318.287V35.403H316.89Z" fill="#705D56"/>
<path d="M215.561 25.6074H214.159V27.0048V35.403H211.359V36.8004H218.356V35.403H215.561V25.6074Z" fill="#D8A15D"/>
<path d="M216.959 21.4062V20.0088H215.561V18.6113H214.159V24.2055V25.6075H215.561V24.2055H216.959V22.8081H218.356V21.4062H216.959Z" fill="#D8A15D"/>
<path d="M283.239 25.6074H281.841V27.0048V35.403H279.042V36.8004H286.038V35.403H283.239V25.6074Z" fill="#D8A15D"/>
<path d="M284.637 21.4062V20.0088H283.239V18.6113H281.842V24.2055V25.6075H283.239V24.2055H284.637V22.8081H286.039V21.4062H284.637Z" fill="#D8A15D"/>
<path d="M301.907 11.7559H299.723V13.395H301.907V11.7559Z" fill="#705D56"/>
<path d="M306.493 12.8506H304.309V13.9408H306.493V12.8506Z" fill="#705D56"/>
<path d="M315.661 15.5794V14.4854H313.477V16.1245H315.116V15.5794H315.661Z" fill="#705D56"/>
<path d="M301.907 13.9404H299.723V16.1247H301.907V13.9404Z" fill="#705D56"/>
<path d="M296.429 8.61133V18.3053H318.954V8.61133H296.429ZM302.452 13.3954H301.907V13.9405H302.452V16.1248H301.907V16.67H299.177V11.2111H301.907V11.7563H302.452V13.3954ZM307.038 14.4857H304.308V16.1248H306.492V15.5797H307.038V16.1248H306.492V16.67H304.308V16.1248H303.763V12.8503H304.308V12.3052H306.492V12.8503H307.038V14.4895V14.4857ZM311.078 13.3954H309.988V16.1248H311.078V16.67H309.988V16.1248H309.443V13.3954H308.353V12.8503H309.443V11.2111H309.988V12.8503H311.078V13.3954ZM316.209 16.67H315.664V16.1248H315.119V16.67H313.48V16.1248H312.935V14.4857H313.48V13.9405H315.664V12.8503H313.48V13.3954H312.935V12.8503H313.48V12.3052H315.664V12.8503H316.209V16.67Z" fill="#705D56"/>
</svg>
