<svg width="20" height="21" viewBox="0 0 20 21" fill="none" xmlns="http://www.w3.org/2000/svg">
<path d="M17.5269 4.22949H2.47803V5.72949H17.5269V4.22949Z" fill="#F7F4F3"/>
<path d="M17.5269 16.2734H2.47803V17.7734H17.5269V16.2734Z" fill="#F7F4F3"/>
<path d="M17.5273 5.72996V16.2734H19.0273V5.72996H17.5273Z" fill="#F7F4F3"/>
<path d="M0.978027 5.72996L0.978027 16.2734H2.47803L2.47803 5.72996H0.978027Z" fill="#F7F4F3"/>
<path d="M5.4944 7.20801H3.97266V8.72975H5.4944V7.20801Z" fill="#F7F4F3"/>
<path d="M7.01637 8.72363H5.49463V10.2454H7.01637V8.72363Z" fill="#F7F4F3"/>
<path d="M8.53785 10.2461H7.01611V11.7678H8.53785V10.2461Z" fill="#F7F4F3"/>
<path d="M10.0544 11.7676H8.53809V13.2893H10.0544H11.5761V11.7676H10.0544Z" fill="#F7F4F3"/>
<path d="M14.614 8.72363H16.1357V7.20189H14.614V8.72363Z" fill="#F7F4F3"/>
<path d="M13.0925 10.251H14.6143V8.72924H13.0925V10.251Z" fill="#F7F4F3"/>
<path d="M11.5759 11.7676H13.0977V10.2458H11.5759V11.7676Z" fill="#F7F4F3"/>
</svg>
