<svg width="36" height="36" viewBox="0 0 36 36" fill="none" xmlns="http://www.w3.org/2000/svg">
<path d="M29.0972 8H6.2749V10.2748H29.0972V8Z" fill="black"/>
<path d="M29.0972 26.2651H6.2749V28.54H29.0972V26.2651Z" fill="black"/>
<path d="M29.0977 10.2756V26.2652H31.3725V10.2756H29.0977Z" fill="black"/>
<path d="M4 10.2756V26.2652H6.27482V10.2756H4Z" fill="black"/>
<path d="M10.8493 12.5171H8.5415V14.8249H10.8493V12.5171Z" fill="black"/>
<path d="M13.1574 14.8157H10.8496V17.1235H13.1574V14.8157Z" fill="black"/>
<path d="M15.4645 17.1245H13.1567V19.4322H15.4645V17.1245Z" fill="black"/>
<path d="M17.7649 19.4319H15.4653V21.7396H17.7649H20.0726V19.4319H17.7649Z" fill="black"/>
<path d="M24.6792 14.8156H26.9869V12.5078H24.6792V14.8156Z" fill="black"/>
<path d="M22.3721 17.1318H24.6799V14.824H22.3721V17.1318Z" fill="black"/>
<path d="M20.0713 19.4317H22.3792V17.1238H20.0713V19.4317Z" fill="black"/>
</svg>
