<svg width="24" height="25" viewBox="0 0 24 25" fill="none" xmlns="http://www.w3.org/2000/svg">
<path d="M8.26025 14.9581H4V9.04004H8.26025V10.2728H5.23275V13.7253H8.26025V14.9581Z" fill="#393831"/>
<path d="M10.9756 4.82178V6.2338H12.3332V4.82178H10.9756Z" fill="#393831"/>
<path d="M12.334 3.40967V4.82169H15.0493V3.40967H12.334Z" fill="#393831"/>
<path d="M9.61816 6.22803V7.64005H10.9758V6.22803H9.61816Z" fill="#393831"/>
<path d="M8.26074 7.64014V9.05216H9.61838V7.64014H8.26074Z" fill="#393831"/>
<path d="M16.2816 2H15.0488V22H16.2816V2Z" fill="#393831"/>
<path d="M12.334 19.1821V20.5942H15.0493V19.1821H12.334Z" fill="#393831"/>
<path d="M10.9756 17.7705V19.1825H12.3332V17.7705H10.9756Z" fill="#393831"/>
<path d="M9.61816 16.3599V17.7719H10.9758V16.3599H9.61816Z" fill="#393831"/>
<path d="M8.26074 14.9478V16.3598H9.61838V14.9478H8.26074Z" fill="#393831"/>
<path d="M17.515 9.05225H16.2822V14.9481H17.515V9.05225Z" fill="#393831"/>
</svg>
