<svg width="24" height="24" viewBox="0 0 24 24" fill="none" xmlns="http://www.w3.org/2000/svg">
<path d="M5.70039 14.7998H1.40039V8.7998H5.70039V9.9998H2.70039V13.4998H5.70039V14.7998Z" fill="#393831"/>
<path d="M8.40039 4.6001V6.0001H9.80039V4.6001H8.40039Z" fill="#393831"/>
<path d="M9.7002 3.2002V4.6002H12.4002V3.2002H9.7002Z" fill="#393831"/>
<path d="M7 6V7.4H8.4V6H7Z" fill="#393831"/>
<path d="M5.7002 7.3999V8.7999H7.1002V7.3999H5.7002Z" fill="#393831"/>
<path d="M13.7004 1.7998H12.4004V21.7998H13.6004V1.7998H13.7004Z" fill="#393831"/>
<path d="M9.7002 19V20.4H12.4002V19H9.7002Z" fill="#393831"/>
<path d="M8.40039 17.6001V19.0001H9.80039V17.6001H8.40039Z" fill="#393831"/>
<path d="M7 16.2002V17.6002H8.4V16.2002H7Z" fill="#393831"/>
<path d="M5.7002 14.7998V16.1998H7.1002V14.7998H5.7002Z" fill="#393831"/>
<path d="M14.7996 8.8999H13.5996V14.7999H14.7996V8.8999Z" fill="#393831"/>
<path d="M15.7998 7.5V8.9H17.1998V7.5H15.7998Z" fill="#393831"/>
<path d="M15.7998 14.7998V16.1998H17.1998V14.7998H15.7998Z" fill="#393831"/>
<path d="M18.4002 8.8999H17.2002V14.7999H18.4002V8.8999Z" fill="#393831"/>
<path d="M21.2002 7.3999V16.0999H22.6002V7.3999H21.2002Z" fill="#393831"/>
<path d="M19.7998 16.1001V17.5001H21.1998V16.1001H19.7998Z" fill="#393831"/>
<path d="M18.4004 4.6001V6.0001H19.8004V4.6001H18.4004Z" fill="#393831"/>
<path d="M18.4004 17.5V18.9H19.8004V17.5H18.4004Z" fill="#393831"/>
<path d="M19.7998 6V7.4H21.1998V6H19.7998Z" fill="#393831"/>
</svg>
