<svg width="32" height="32" viewBox="0 0 32 32" fill="none" xmlns="http://www.w3.org/2000/svg">
<path d="M18.4871 1.45215H13.4697V3.86084H18.4871V1.45215Z" fill="#705D56"/>
<path d="M18.4871 13.6953H13.4697V16.104H18.4871V13.6953Z" fill="#705D56"/>
<path d="M13.4604 3.86133H10.9561V6.27002H13.4604V3.86133Z" fill="#705D56"/>
<path d="M20.9917 3.86133H18.4873V6.27002H20.9917V3.86133Z" fill="#705D56"/>
<path d="M8.54785 6.26972V11.2871H10.9565V6.26972H8.54785Z" fill="#705D56"/>
<path d="M20.9912 6.26972V11.2871H23.3999V6.26972H20.9912Z" fill="#705D56"/>
<path d="M13.4604 11.2871H10.9561V13.6958H13.4604V11.2871Z" fill="#705D56"/>
<path d="M20.9917 11.2871H18.4873V13.6958H20.9917V11.2871Z" fill="#705D56"/>
<path d="M11.0083 18.5127H8.50391V20.9214H11.0083V18.5127Z" fill="#705D56"/>
<path d="M8.54829 20.9219H6.04395V23.3306H8.54829V20.9219Z" fill="#705D56"/>
<path d="M6.04341 23.3301H3.53906V25.7388H6.04341V23.3301Z" fill="#705D56"/>
<path d="M6.04341 25.7393H3.53906V28.148H6.04341V25.7393Z" fill="#705D56"/>
<path d="M28.4695 28.1475H3.53906V30.5562H28.4695V28.1475Z" fill="#705D56"/>
<path d="M20.9996 20.9219H23.5039V18.5132H20.9996V20.9219Z" fill="#705D56"/>
<path d="M23.4517 23.3301H25.9561V20.9214H23.4517V23.3301Z" fill="#705D56"/>
<path d="M25.9654 25.7305H28.4697V23.3218H25.9654V25.7305Z" fill="#705D56"/>
<path d="M25.9654 28.1387H28.4697V25.73H25.9654V28.1387Z" fill="#705D56"/>
<path d="M13.4604 16.1045H10.9561V18.5132H13.4604V16.1045Z" fill="#705D56"/>
<path d="M20.9917 16.1045H18.4873V18.5132H20.9917V16.1045Z" fill="#705D56"/>
</svg>
