<svg width="36" height="36" viewBox="0 0 36 36" fill="none" xmlns="http://www.w3.org/2000/svg">
<path d="M27.3786 27.1343L19.9993 16.4807L19.1685 15.259L13.9395 7.6353L13.4997 7H7L8.56383 9.29687L15.5522 19.4617L16.383 20.6835L22.003 28.8447L22.4428 29.48H28.8936L27.3786 27.1343ZM23.2247 27.965L17.4092 19.5106L16.5784 18.2889L9.78557 8.46609H12.7177L18.1911 16.4318L19.0219 17.6536L26.1569 28.0139H23.2247V27.965Z" fill="black"/>
<path d="M16.5784 18.2886L17.4092 19.5103L16.4318 20.6343L8.85704 29.4308H7L15.601 19.4614L16.5784 18.2886Z" fill="black"/>
<path d="M28.1613 7L20.0001 16.4807L19.0227 17.6047L18.1919 16.4318L19.1693 15.259L24.6915 8.85704L26.3042 7H28.1613Z" fill="black"/>
</svg>
