<?xml version="1.0" encoding="utf-8"?>
<!-- Generator: Adobe Illustrator 16.0.0, SVG Export Plug-In . SVG Version: 6.00 Build 0)  -->
<!DOCTYPE svg PUBLIC "-//W3C//DTD SVG 1.1//EN" "http://www.w3.org/Graphics/SVG/1.1/DTD/svg11.dtd">
<svg version="1.1" id="Layer_1" xmlns="http://www.w3.org/2000/svg" xmlns:xlink="http://www.w3.org/1999/xlink" x="0px" y="0px"
	 width="697px" height="885px" viewBox="0 0 697 885" enable-background="new 0 0 697 885" xml:space="preserve">
<path fill="#6ADBCE" d="M19.977-29.723c-4.258-0.929-6.96-5.135-6.031-9.393c0.935-4.265,5.146-6.964,9.396-6.03
	c4.26,0.929,6.959,5.136,6.031,9.396C28.442-31.493,24.236-28.791,19.977-29.723z"/>
<g opacity="0.1">
	<path fill="#6ADBCE" d="M144.533,559.95l0.796-6.852c0.312-2.637,0.039-3.214-2.075-4.792l-5.56-4.155
		c-2.113-1.577-2.746-1.675-5.186-0.632l-6.352,2.721c-2.423,1.038-2.816,1.566-3.131,4.182l-0.875,6.953
		c-0.307,2.633-0.107,3.314,2.008,4.896l5.559,4.152c2.112,1.576,2.821,1.57,5.264,0.529l3.622-1.586l1.862-0.812l0.93-0.403
		C143.818,563.109,144.222,562.567,144.533,559.95z"/>
	<path fill="#FF77B5" d="M276.73,717.506l0.242-2.094c0.096-0.805,0.012-0.979-0.633-1.461l-1.697-1.267
		c-0.645-0.481-0.836-0.513-1.58-0.194l-1.938,0.83c-0.739,0.316-0.86,0.479-0.954,1.275l-0.269,2.123
		c-0.095,0.803-0.033,1.011,0.61,1.493l1.694,1.268c0.646,0.481,0.86,0.479,1.604,0.161l1.106-0.482l0.565-0.25l0.283-0.121
		C276.511,718.469,276.636,718.302,276.73,717.506z"/>
	<path opacity="0.8" fill="#6ADBCE" enable-background="new    " d="M236.873,614.784l1.197-10.312
		c0.47-3.961,0.06-4.834-3.124-7.208l-8.361-6.251c-3.184-2.379-4.135-2.528-7.809-0.957l-9.557,4.096
		c-3.645,1.564-4.236,2.358-4.707,6.291l-1.32,10.469c-0.463,3.959-0.166,4.984,3.02,7.363l8.365,6.25
		c3.18,2.377,4.252,2.369,7.92,0.801l5.455-2.389l2.802-1.223l1.396-0.609C235.796,619.541,236.404,618.72,236.873,614.784z"/>
	<path opacity="0.6" fill="#FF0038" enable-background="new    " d="M252.765,774.052l1.094-9.414
		c0.43-3.619,0.057-4.414-2.85-6.582l-7.637-5.703c-2.908-2.174-3.776-2.311-7.125-0.877l-8.729,3.742
		c-3.328,1.424-3.865,2.148-4.299,5.741l-1.204,9.555c-0.426,3.618-0.149,4.553,2.755,6.726l7.641,5.708
		c2.899,2.17,3.877,2.157,7.229,0.729l4.98-2.183l2.559-1.116l1.276-0.558C251.781,778.396,252.338,777.65,252.765,774.052z"/>
	<path opacity="0.6" fill="#FF0038" enable-background="new    " d="M160.273,563.261l9.411-5.703
		c3.62-2.186,4.082-3.093,4.001-7.303l-0.212-11.062c-0.077-4.212-0.571-5.104-4.271-7.152l-9.646-5.336
		c-3.677-2.029-4.725-2.012-8.323,0.15l-9.612,5.701c-3.62,2.19-4.283,3.106-4.204,7.318l0.209,11.062
		c0.081,4.207,0.784,5.095,4.48,7.146l5.546,3.011l2.846,1.552l1.421,0.771C155.593,565.45,156.673,565.43,160.273,563.261z"/>
	<path opacity="0.6" fill="#FF0038" enable-background="new    " d="M341.341,438.207l0.938-8.063
		c0.365-3.099,0.049-3.78-2.441-5.638l-6.543-4.891c-2.489-1.861-3.234-1.979-6.105-0.749l-7.473,3.204
		c-2.854,1.225-3.315,1.842-3.684,4.918L315,435.177c-0.363,3.1-0.128,3.9,2.358,5.76l6.541,4.891
		c2.49,1.859,3.326,1.854,6.197,0.627l4.264-1.868l2.193-0.956l1.095-0.479C340.501,441.927,340.976,441.287,341.341,438.207z"/>
	<path opacity="0.6" fill="#FF0038" enable-background="new    " d="M204.363,543.174l0.854-7.323
		c0.334-2.818,0.04-3.436-2.219-5.122l-5.939-4.439c-2.262-1.689-2.938-1.796-5.545-0.68l-6.787,2.909
		c-2.59,1.108-3.012,1.673-3.346,4.467l-0.938,7.438c-0.328,2.812-0.115,3.541,2.146,5.229l5.938,4.438
		c2.264,1.69,3.021,1.684,5.627,0.568l3.874-1.693l1.99-0.869l0.993-0.436C203.597,546.551,204.032,545.97,204.363,543.174z"/>
	<path fill="#FFDB56" d="M150.613,740.516l0.4-3.45c0.158-1.326,0.021-1.618-1.045-2.413l-2.797-2.093
		c-1.066-0.795-1.385-0.844-2.614-0.317l-3.198,1.368c-1.219,0.525-1.416,0.789-1.572,2.105l-0.441,3.504
		c-0.155,1.322-0.057,1.666,1.01,2.464l2.8,2.091c1.063,0.797,1.423,0.791,2.649,0.268l1.825-0.799l0.938-0.409l0.471-0.202
		C150.252,742.107,150.454,741.837,150.613,740.516z"/>
	<path fill="#FFDB56" d="M194.186,728.513l1.026-8.795c0.396-3.383,0.047-4.123-2.664-6.148l-7.137-5.337
		c-2.719-2.023-3.527-2.148-6.654-0.81l-8.154,3.489c-3.105,1.337-3.615,2.011-4.014,5.367l-1.129,8.923
		c-0.395,3.385-0.141,4.258,2.576,6.281l7.136,5.334c2.712,2.03,3.623,2.02,6.757,0.686l4.648-2.041l2.391-1.039l1.193-0.521
		C193.27,732.567,193.789,731.873,194.186,728.513z"/>
	<path fill="#FFDB56" d="M180.108,731.642l0.315-2.701c0.123-1.037,0.016-1.266-0.818-1.887l-2.189-1.639
		c-0.834-0.623-1.084-0.66-2.045-0.248l-2.502,1.07c-0.955,0.408-1.11,0.615-1.232,1.646l-0.346,2.742
		c-0.122,1.037-0.045,1.305,0.789,1.928l2.189,1.639c0.834,0.621,1.115,0.62,2.076,0.208l1.426-0.626l0.734-0.316l0.367-0.159
		C179.827,732.888,179.986,732.677,180.108,731.642z"/>
	<path fill="#6ADBCE" d="M158.616,733.523c-4.508-1.324-7.092-6.051-5.767-10.561c1.324-4.506,6.052-7.085,10.562-5.762
		c4.505,1.322,7.087,6.051,5.762,10.559C167.851,732.269,163.122,734.846,158.616,733.523z"/>
	<path fill="#FFDB56" d="M184.177,711.927c-5.49-1.613-8.633-7.371-7.02-12.86c1.609-5.489,7.367-8.633,12.855-7.021
		c5.489,1.611,8.631,7.369,7.021,12.857C195.421,710.394,189.663,713.537,184.177,711.927z"/>
	<path opacity="0.6" fill="#FF0038" enable-background="new    " d="M167.553,740.177l0.784-6.762c0.308-2.6,0.041-3.17-2.047-4.727
		l-5.483-4.097c-2.087-1.562-2.71-1.657-5.116-0.627l-6.264,2.686c-2.389,1.022-2.779,1.544-3.088,4.122l-0.863,6.863
		c-0.305,2.596-0.107,3.265,1.979,4.825l5.48,4.099c2.084,1.559,2.785,1.551,5.191,0.523l3.574-1.564l1.838-0.803l0.916-0.4
		C166.845,743.295,167.245,742.758,167.553,740.177z"/>
	<path opacity="0.7" fill="#FFDB56" enable-background="new    " d="M118.695,588.547l1.109-9.521
		c0.434-3.662,0.053-4.465-2.886-6.66l-7.728-5.773c-2.938-2.195-3.817-2.332-7.206-0.881l-8.83,3.781
		c-3.363,1.444-3.909,2.178-4.347,5.812l-1.218,9.666c-0.426,3.659-0.153,4.604,2.788,6.801l7.726,5.774
		c2.937,2.195,3.923,2.186,7.316,0.735l5.033-2.206l2.589-1.127l1.293-0.561C117.702,592.935,118.263,592.184,118.695,588.547z"/>
	<path fill="#FFFFFF" d="M95.884,744.906l0.25-2.175c0.1-0.835,0.014-1.017-0.656-1.517l-1.76-1.316
		c-0.67-0.5-0.873-0.532-1.643-0.2l-2.016,0.862c-0.768,0.326-0.893,0.494-0.992,1.323l-0.276,2.204
		c-0.099,0.834-0.032,1.051,0.636,1.551l1.763,1.314c0.671,0.5,0.896,0.498,1.666,0.168l1.149-0.504l0.59-0.258l0.294-0.128
		C95.656,745.906,95.783,745.732,95.884,744.906z"/>
	<path fill="#6ADBCE" d="M161.211,737.511l0.306-2.597c0.113-0.995,0.01-1.218-0.789-1.812l-2.104-1.571
		c-0.803-0.6-1.041-0.637-1.962-0.241l-2.406,1.031c-0.915,0.393-1.063,0.59-1.186,1.579l-0.329,2.636
		c-0.117,0.997-0.044,1.254,0.757,1.854l2.104,1.573c0.798,0.599,1.069,0.595,1.993,0.199l1.369-0.601l0.705-0.309l0.354-0.152
		C160.941,738.707,161.095,738.5,161.211,737.511z"/>
	<path opacity="0.1" fill="#FFFFFF" enable-background="new    " d="M236.911,446.386l1.865-16.062
		c0.73-6.174,0.092-7.528-4.865-11.229l-13.027-9.736c-4.957-3.703-6.441-3.938-12.152-1.488l-14.893,6.381
		c-5.675,2.437-6.598,3.672-7.33,9.797l-2.057,16.304c-0.725,6.173-0.258,7.767,4.699,11.472l13.027,9.734
		c4.957,3.705,6.62,3.688,12.339,1.246l8.495-3.719l4.363-1.904l2.178-0.949C235.23,453.791,236.181,452.519,236.911,446.386z"/>
	<path opacity="0.6" fill="#FF0038" enable-background="new    " d="M253.718,434.443l0.645-5.521
		c0.248-2.125,0.029-2.594-1.675-3.863l-4.479-3.352c-1.706-1.271-2.213-1.354-4.182-0.514l-5.121,2.197
		c-1.953,0.836-2.271,1.261-2.521,3.369l-0.708,5.605c-0.249,2.123-0.087,2.672,1.618,3.944l4.479,3.35
		c1.706,1.274,2.277,1.269,4.245,0.431l2.922-1.28l1.499-0.653l0.748-0.328C253.142,436.99,253.47,436.552,253.718,434.443z"/>
	<path fill="#FFDB56" d="M269.529,422.32l1.007-8.648c0.396-3.323,0.052-4.053-2.617-6.049l-7.021-5.242
		c-2.67-1.994-3.469-2.119-6.545-0.803l-8.018,3.438c-3.06,1.312-3.557,1.974-3.949,5.272l-1.107,8.781
		c-0.389,3.322-0.138,4.184,2.533,6.18l7.016,5.24c2.67,1.993,3.564,1.986,6.645,0.67l4.578-2l2.348-1.025l1.174-0.514
		C268.623,426.308,269.138,425.624,269.529,422.32z"/>
	<path opacity="0.8" fill="#6ADBCE" enable-background="new    " d="M258.1,384.767l1.47-12.632c0.574-4.854,0.071-5.92-3.824-8.829
		l-10.246-7.656c-3.897-2.915-5.064-3.097-9.559-1.171l-11.708,5.017c-4.464,1.914-5.188,2.887-5.768,7.703l-1.617,12.82
		c-0.564,4.855-0.2,6.109,3.698,9.021l10.245,7.656c3.896,2.912,5.205,2.899,9.701,0.979l6.682-2.923l3.432-1.499l1.711-0.748
		C256.78,390.594,257.528,389.593,258.1,384.767z"/>
	<path fill="#6ADBCE" d="M221.31,422.932l0.362-3.116c0.142-1.195,0.019-1.459-0.942-2.176l-2.523-1.889
		c-0.961-0.72-1.249-0.764-2.357-0.289l-2.888,1.234c-1.104,0.475-1.278,0.713-1.421,1.901l-0.398,3.161
		c-0.142,1.195-0.051,1.508,0.911,2.225l2.526,1.891c0.96,0.717,1.279,0.713,2.393,0.238l1.646-0.723l0.85-0.369l0.421-0.184
		C220.986,424.367,221.169,424.123,221.31,422.932z"/>
	<path opacity="0.6" fill="#FF0038" enable-background="new    " d="M165.448,553.479l0.648-5.571
		c0.252-2.139,0.031-2.606-1.688-3.892l-4.52-3.378c-1.72-1.285-2.234-1.367-4.217-0.52l-5.162,2.217
		c-1.972,0.843-2.291,1.271-2.545,3.396l-0.713,5.655c-0.25,2.142-0.089,2.69,1.63,3.979l4.521,3.375
		c1.719,1.285,2.294,1.279,4.277,0.436l2.945-1.292l1.514-0.659l0.758-0.33C164.867,556.051,165.195,555.607,165.448,553.479z"/>
	<circle fill="#FFDB56" cx="150.124" cy="687.821" r="3.58"/>
	<circle fill="#FFDB56" cx="199.295" cy="371.002" r="5.473"/>
	<path fill="#FFDB56" d="M203.116,297.59l0.43-3.706c0.17-1.423,0.021-1.735-1.121-2.591l-3.005-2.246
		c-1.146-0.854-1.485-0.903-2.804-0.34l-3.436,1.469c-1.311,0.562-1.522,0.85-1.689,2.262l-0.477,3.763
		c-0.168,1.423-0.06,1.792,1.084,2.646l3.006,2.242c1.144,0.855,1.525,0.854,2.846,0.288l1.961-0.857l1.007-0.438l0.503-0.22
		C202.728,299.297,202.947,299.006,203.116,297.59z"/>
	<path fill="#FFDB56" d="M199.734,343.677l1.271-10.932c0.493-4.196,0.061-5.118-3.312-7.64l-8.865-6.624
		c-3.37-2.521-4.385-2.679-8.27-1.013l-10.131,4.34c-3.861,1.657-4.49,2.498-4.989,6.666l-1.396,11.091
		c-0.491,4.202-0.174,5.286,3.197,7.806l8.864,6.626c3.371,2.521,4.503,2.511,8.395,0.849l5.779-2.53l2.972-1.296l1.479-0.646
		C198.59,348.719,199.238,347.849,199.734,343.677z"/>
	<path fill="#6ADBCE" d="M224.45,360.866l0.635-5.472c0.249-2.104,0.031-2.563-1.656-3.824l-4.438-3.314
		c-1.688-1.264-2.193-1.343-4.141-0.509l-5.07,2.175c-1.936,0.827-2.246,1.25-2.496,3.336l-0.7,5.553
		c-0.247,2.103-0.087,2.646,1.601,3.906l4.438,3.313c1.688,1.264,2.254,1.257,4.203,0.425l2.891-1.266l1.488-0.648l0.74-0.322
		C223.878,363.386,224.204,362.953,224.45,360.866z"/>
	<path opacity="0.6" fill="#FF0038" enable-background="new    " d="M219.753,375.147l0.793-6.815
		c0.311-2.618,0.036-3.193-2.064-4.766l-5.529-4.133c-2.104-1.572-2.731-1.669-5.155-0.631l-6.317,2.709
		c-2.409,1.032-2.801,1.555-3.111,4.153l-0.871,6.921c-0.308,2.617-0.108,3.295,1.993,4.867l5.528,4.133
		c2.105,1.568,2.811,1.562,5.233,0.527l3.605-1.58l1.854-0.807l0.922-0.404C219.04,378.289,219.443,377.753,219.753,375.147z"/>
	<path opacity="0.7" fill="#6ADBCE" enable-background="new    " d="M201.728,357.306l1.529-13.166
		c0.599-5.06,0.074-6.17-3.986-9.203l-10.68-7.979c-4.062-3.037-5.278-3.229-9.961-1.223l-12.202,5.229
		c-4.653,1.995-5.408,3.007-6.012,8.024l-1.685,13.361c-0.592,5.061-0.209,6.369,3.854,9.404l10.676,7.979
		c4.062,3.035,5.427,3.023,10.11,1.021l6.964-3.05l3.577-1.562l1.786-0.777C200.349,363.375,201.128,362.335,201.728,357.306z"/>
	<path fill="#FFFFFF" d="M208.933,287.893l0.311-2.655c0.119-1.023,0.016-1.246-0.807-1.859l-2.152-1.607
		c-0.82-0.613-1.066-0.65-2.012-0.246l-2.463,1.055c-0.938,0.403-1.092,0.606-1.213,1.621l-0.34,2.696
		c-0.119,1.02-0.043,1.284,0.777,1.896l2.151,1.61c0.819,0.612,1.101,0.609,2.042,0.205l1.405-0.613l0.722-0.316l0.361-0.154
		C208.656,289.119,208.813,288.908,208.933,287.893z"/>
	<path fill="#FFDB56" d="M186.685,277.185l0.736-6.319c0.285-2.429,0.036-2.963-1.913-4.418l-5.128-3.833
		c-1.951-1.457-2.535-1.548-4.781-0.585l-5.859,2.511c-2.232,0.958-2.598,1.444-2.887,3.854l-0.807,6.414
		c-0.285,2.43-0.104,3.058,1.85,4.516l5.125,3.829c1.952,1.458,2.604,1.452,4.854,0.491l3.343-1.465l1.716-0.747l0.857-0.376
		C186.025,280.098,186.4,279.598,186.685,277.185z"/>
	<path fill="#FFDB56" d="M170.988,255.026l0.681-5.825c0.265-2.238,0.032-2.729-1.767-4.07l-4.726-3.529
		c-1.796-1.346-2.335-1.43-4.407-0.541l-5.396,2.312c-2.062,0.881-2.396,1.33-2.66,3.552l-0.744,5.912
		c-0.262,2.239-0.093,2.818,1.704,4.161l4.724,3.529c1.799,1.346,2.402,1.339,4.476,0.453l3.081-1.352l1.584-0.689l0.787-0.343
		C170.38,257.713,170.724,257.252,170.988,255.026z"/>
	<path fill="#FFDB56" d="M285.046,772.275l0.771-6.639c0.304-2.558,0.038-3.113-2.011-4.646l-5.388-4.027
		c-2.049-1.529-2.664-1.625-5.025-0.609l-6.153,2.633c-2.351,1.01-2.731,1.521-3.03,4.055l-0.854,6.738
		c-0.298,2.553-0.105,3.212,1.943,4.742l5.389,4.027c2.047,1.532,2.736,1.521,5.102,0.515l3.51-1.538l1.808-0.787l0.901-0.393
		C284.356,775.34,284.745,774.813,285.046,772.275z"/>
	<path fill="#FF77B5" d="M309.281,765.761c-1.896-0.559-2.983-2.549-2.427-4.449c0.562-1.896,2.548-2.979,4.444-2.422
		c1.896,0.558,2.984,2.543,2.428,4.439C313.168,765.23,311.177,766.32,309.281,765.761z"/>
	<path opacity="0.7" fill="#FFFFFF" enable-background="new    " d="M313.419,787.927l1.585-13.631
		c0.618-5.242,0.075-6.392-4.125-9.527l-11.062-8.27c-4.208-3.141-5.467-3.337-10.312-1.26l-12.637,5.412
		c-4.817,2.066-5.602,3.115-6.221,8.313l-1.75,13.837c-0.606,5.236-0.217,6.59,3.992,9.729l11.061,8.269
		c4.199,3.145,5.613,3.129,10.469,1.057l7.204-3.154l3.706-1.615l1.85-0.806C311.995,794.214,312.798,793.136,313.419,787.927z"/>
	<path fill="#6ADBCE" d="M401.531,413.123l0.41-3.542c0.163-1.358,0.021-1.657-1.071-2.476l-2.874-2.146
		c-1.091-0.814-1.418-0.869-2.679-0.328l-3.28,1.406c-1.25,0.537-1.454,0.811-1.615,2.158l-0.457,3.596
		c-0.158,1.36-0.055,1.715,1.039,2.529l2.873,2.147c1.09,0.813,1.459,0.812,2.719,0.272l1.874-0.818l0.96-0.423l0.48-0.21
		C401.159,414.758,401.368,414.474,401.531,413.123z"/>
	<path fill="#6ADBCE" d="M180.099,255.172l0.369-3.178c0.145-1.221,0.02-1.488-0.963-2.221l-2.576-1.925
		c-0.979-0.735-1.275-0.781-2.403-0.295l-2.944,1.261c-1.125,0.479-1.309,0.727-1.454,1.938l-0.405,3.226
		c-0.143,1.224-0.049,1.538,0.932,2.27l2.576,1.925c0.979,0.735,1.312,0.73,2.442,0.25l1.681-0.734l0.863-0.377l0.431-0.189
		C179.765,256.636,179.955,256.386,180.099,255.172z"/>
	<path fill="#6ADBCE" d="M307.464,524.45l6.841-7.214c2.634-2.768,2.818-3.671,1.745-7.314l-2.824-9.596
		c-1.072-3.646-1.717-4.31-5.43-5.211l-9.676-2.349c-3.689-0.892-4.6-0.626-7.219,2.117l-7.02,7.263
		c-2.63,2.773-2.988,3.727-1.914,7.377l2.817,9.589c1.073,3.649,1.898,4.256,5.608,5.161l5.553,1.301l2.852,0.672l1.419,0.334
		C303.909,527.474,304.845,527.199,307.464,524.45z"/>
	<path opacity="0.7" fill="#6ADBCE" enable-background="new    " d="M223.957,196.295l2.932-25.172
		c1.146-9.676,0.14-11.799-7.624-17.6l-20.42-15.256c-7.768-5.81-10.095-6.17-19.045-2.334l-23.334,9.999
		c-8.897,3.813-10.341,5.749-11.492,15.35l-3.221,25.548c-1.13,9.675-0.401,12.178,7.367,17.98l20.417,15.256
		c7.768,5.806,10.374,5.781,19.334,1.955l13.313-5.83l6.84-2.983l3.41-1.487C221.329,207.9,222.818,205.906,223.957,196.295z"/>
	<path opacity="0.7" fill="#6ADBCE" enable-background="new    " d="M336.109,454.855l1.01-8.659
		c0.395-3.327,0.048-4.058-2.623-6.052l-7.023-5.251c-2.672-1.997-3.473-2.12-6.551-0.802l-8.027,3.438
		c-3.061,1.312-3.557,1.979-3.953,5.28l-1.105,8.788c-0.393,3.329-0.14,4.188,2.533,6.187l7.021,5.248
		c2.673,1.997,3.569,1.988,6.65,0.67l4.58-2.002l2.354-1.027l1.174-0.513C335.204,458.848,335.718,458.163,336.109,454.855z"/>
	<path opacity="0.8" fill="#6ADBCE" enable-background="new    " d="M505.482,298.176l1.008-8.657
		c0.395-3.329,0.048-4.062-2.623-6.057l-7.021-5.249c-2.672-1.997-3.475-2.121-6.554-0.803l-8.024,3.44
		c-3.062,1.312-3.561,1.978-3.953,5.279l-1.107,8.788c-0.391,3.329-0.139,4.189,2.533,6.188l7.023,5.248
		c2.672,1.996,3.566,1.988,6.648,0.67l4.58-2.002l2.354-1.027l1.173-0.512C504.573,302.167,505.089,301.482,505.482,298.176z"/>
	<path fill="#6ADBCE" d="M284.84,409.69l0.771-6.63c0.303-2.548,0.037-3.107-2.008-4.635l-5.379-4.021
		c-2.045-1.527-2.658-1.624-5.015-0.614l-6.146,2.636c-2.344,1.005-2.725,1.514-3.025,4.045l-0.85,6.728
		c-0.299,2.547-0.104,3.206,1.939,4.734l5.378,4.019c2.045,1.528,2.729,1.523,5.091,0.519l3.509-1.537l1.801-0.786l0.897-0.391
		C284.146,412.747,284.539,412.22,284.84,409.69z"/>
	<path opacity="0.7" fill="#FF77B5" enable-background="new    " d="M298.236,396.435l0.235-2.021
		c0.093-0.774,0.009-0.944-0.612-1.409l-1.638-1.227c-0.622-0.464-0.808-0.496-1.528-0.186l-1.871,0.801
		c-0.715,0.306-0.826,0.461-0.922,1.229l-0.259,2.053c-0.091,0.775-0.03,0.976,0.591,1.441l1.639,1.225
		c0.627,0.467,0.834,0.463,1.553,0.155l1.066-0.467l0.551-0.24l0.271-0.118C298.023,397.366,298.144,397.207,298.236,396.435z"/>
	<path opacity="0.6" fill="#FF0038" enable-background="new    " d="M421.448,416.424l0.622-5.339
		c0.242-2.055,0.028-2.505-1.618-3.729l-4.332-3.239c-1.646-1.229-2.139-1.308-4.039-0.495l-4.947,2.121
		c-1.888,0.812-2.193,1.222-2.438,3.256l-0.684,5.417c-0.242,2.054-0.086,2.583,1.562,3.815l4.33,3.234
		c1.646,1.23,2.2,1.227,4.102,0.415l2.822-1.236l1.451-0.632l0.725-0.316C420.89,418.885,421.202,418.463,421.448,416.424z"/>
	<path fill="#FF77B5" d="M343.677,385.965l0.623-5.34c0.241-2.053,0.029-2.504-1.619-3.73l-4.331-3.236
		c-1.646-1.229-2.14-1.308-4.04-0.496l-4.947,2.122c-1.887,0.812-2.191,1.224-2.438,3.255l-0.684,5.418
		c-0.241,2.055-0.088,2.586,1.562,3.816l4.33,3.234c1.646,1.23,2.201,1.226,4.1,0.414l2.824-1.235l1.453-0.632l0.721-0.319
		C343.118,388.427,343.435,388.006,343.677,385.965z"/>
	<path opacity="0.6" fill="#FF0038" enable-background="new    " d="M290.891,403.689l0.617-5.318c0.243-2.043,0.03-2.49-1.61-3.715
		l-4.312-3.227c-1.642-1.227-2.133-1.303-4.023-0.492l-4.928,2.112c-1.881,0.806-2.188,1.215-2.43,3.243l-0.682,5.396
		c-0.236,2.042-0.085,2.569,1.559,3.799l4.312,3.224c1.645,1.228,2.191,1.221,4.084,0.41l2.812-1.229l1.443-0.631l0.724-0.315
		C290.336,406.14,290.651,405.72,290.891,403.689z"/>
	<path fill="#FF77B5" d="M263.707,527.496l4.146-4.375c1.602-1.68,1.711-2.225,1.062-4.437l-1.713-5.818
		c-0.65-2.212-1.039-2.614-3.296-3.159l-5.864-1.424c-2.236-0.543-2.787-0.38-4.377,1.283l-4.26,4.404
		c-1.593,1.68-1.812,2.258-1.158,4.473l1.71,5.816c0.65,2.214,1.149,2.578,3.401,3.131l3.365,0.787l1.729,0.408l0.861,0.199
		C261.55,529.33,262.118,529.162,263.707,527.496z"/>
	<path fill="#FFDB56" d="M298.865,379.363l0.469-4.002c0.18-1.537,0.021-1.875-1.213-2.796l-3.245-2.425
		c-1.237-0.924-1.605-0.98-3.028-0.371l-3.709,1.588c-1.413,0.605-1.645,0.916-1.827,2.439l-0.511,4.062
		c-0.181,1.537-0.064,1.936,1.173,2.857l3.243,2.424c1.234,0.925,1.646,0.92,3.072,0.312l2.116-0.928l1.088-0.473l0.542-0.236
		C298.447,381.211,298.683,380.89,298.865,379.363z"/>
	<path fill="#FFDB56" d="M432.128,402.317l0.964-8.306c0.378-3.195,0.048-3.895-2.517-5.811l-6.735-5.036
		c-2.565-1.916-3.333-2.036-6.288-0.771l-7.7,3.3c-2.938,1.259-3.414,1.897-3.794,5.065l-1.062,8.433
		c-0.373,3.194-0.135,4.021,2.432,5.937l6.737,5.032c2.564,1.916,3.425,1.909,6.385,0.646l4.394-1.922l2.258-0.987l1.125-0.491
		C431.26,406.149,431.746,405.49,432.128,402.317z"/>
	<path fill="#FFDB56" d="M377.704,380.802l0.965-8.312c0.379-3.191,0.047-3.894-2.518-5.809l-6.735-5.036
		c-2.564-1.914-3.332-2.036-6.288-0.771l-7.699,3.302c-2.938,1.26-3.414,1.896-3.795,5.064l-1.062,8.434
		c-0.37,3.191-0.134,4.018,2.434,5.934l6.74,5.035c2.562,1.916,3.42,1.91,6.38,0.646l4.395-1.923l2.257-0.985l1.125-0.49
		C376.837,384.631,377.325,383.97,377.704,380.802z"/>
	<path fill="#FFDB56" d="M199.476,328.01l0.729-6.257c0.282-2.402,0.033-2.934-1.896-4.375l-5.074-3.789
		c-1.93-1.443-2.508-1.533-4.731-0.58l-5.796,2.482c-2.213,0.949-2.572,1.432-2.859,3.814l-0.799,6.352
		c-0.281,2.402-0.102,3.024,1.829,4.468l5.075,3.79c1.93,1.441,2.574,1.438,4.805,0.485l3.307-1.45l1.701-0.738l0.848-0.371
		C198.821,330.892,199.193,330.395,199.476,328.01z"/>
	<path fill="#FFDB56" d="M335.484,485.656l0.81-6.943c0.313-2.672,0.039-3.256-2.104-4.855l-5.635-4.209
		c-2.143-1.602-2.783-1.702-5.254-0.643l-6.439,2.758c-2.452,1.052-2.852,1.587-3.17,4.232l-0.888,7.051
		c-0.312,2.67-0.109,3.359,2.032,4.961l5.633,4.207c2.143,1.604,2.861,1.596,5.334,0.541l3.674-1.607l1.887-0.824l0.942-0.411
		C334.757,488.857,335.166,488.306,335.484,485.656z"/>
	<path opacity="0.6" fill="#FF0038" enable-background="new    " d="M308.527,507.565l9.562-10.084
		c3.684-3.872,3.938-5.133,2.438-10.229l-3.943-13.411c-1.499-5.1-2.4-6.023-7.59-7.283l-13.527-3.285
		c-5.158-1.248-6.43-0.875-10.091,2.96l-9.813,10.152c-3.676,3.876-4.175,5.213-2.676,10.312l3.943,13.409
		c1.502,5.103,2.65,5.947,7.842,7.212l7.76,1.819l3.984,0.938l1.984,0.469C303.557,511.794,304.866,511.406,308.527,507.565z"/>
	<path fill="#FFFFFF" d="M406.935,400.783l0.92-7.895c0.357-3.035,0.043-3.701-2.393-5.521l-6.401-4.781
		c-2.438-1.82-3.165-1.938-5.974-0.732l-7.318,3.137c-2.789,1.195-3.244,1.804-3.604,4.812l-1.012,8.013
		c-0.354,3.034-0.125,3.817,2.312,5.64l6.402,4.783c2.436,1.82,3.254,1.814,6.062,0.615l4.174-1.83l2.146-0.936l1.07-0.469
		C406.11,404.424,406.575,403.799,406.935,400.783z"/>
	<path fill="#FFFFFF" d="M181.581,266.853l0.539-4.628c0.209-1.78,0.022-2.172-1.404-3.239l-3.756-2.806
		c-1.428-1.067-1.855-1.136-3.504-0.431l-4.29,1.84c-1.638,0.701-1.903,1.059-2.113,2.822l-0.593,4.699
		c-0.207,1.78-0.074,2.24,1.354,3.309l3.754,2.807c1.43,1.066,1.908,1.062,3.558,0.357l2.446-1.072l1.261-0.549l0.628-0.271
		C181.095,268.99,181.37,268.623,181.581,266.853z"/>
	<path fill="#FFDB56" d="M203.571,443.169l0.362-3.135c0.145-1.205,0.02-1.469-0.949-2.188l-2.543-1.898
		c-0.963-0.723-1.256-0.77-2.368-0.291l-2.902,1.243c-1.107,0.478-1.288,0.715-1.433,1.911l-0.398,3.18
		c-0.143,1.205-0.051,1.518,0.916,2.238l2.542,1.9c0.966,0.722,1.29,0.717,2.405,0.24l1.654-0.727l0.853-0.371l0.429-0.186
		C203.24,444.609,203.427,444.363,203.571,443.169z"/>
	<path fill="#6ADBCE" d="M301.89,500.974l0.361-3.105c0.142-1.191,0.018-1.457-0.941-2.171l-2.519-1.883
		c-0.957-0.717-1.243-0.761-2.353-0.288l-2.879,1.234c-1.098,0.47-1.273,0.707-1.418,1.893l-0.396,3.152
		c-0.143,1.194-0.051,1.502,0.906,2.217l2.521,1.883c0.956,0.72,1.278,0.717,2.384,0.242l1.646-0.72l0.844-0.368l0.42-0.184
		C301.566,502.406,301.748,502.161,301.89,500.974z"/>
	<path fill="#6ADBCE" d="M179.745,498.797l0.421-3.613c0.163-1.391,0.02-1.693-1.096-2.525l-2.931-2.189
		c-1.115-0.833-1.449-0.887-2.731-0.334l-3.353,1.435c-1.277,0.548-1.481,0.825-1.646,2.204l-0.465,3.666
		c-0.162,1.389-0.057,1.749,1.059,2.582l2.932,2.188c1.115,0.834,1.489,0.83,2.775,0.281l1.911-0.838l0.979-0.426l0.49-0.215
		C179.37,500.462,179.581,500.176,179.745,498.797z"/>
	<path opacity="0.6" fill="#FF0038" enable-background="new    " d="M177.277,484.685l0.236-2.021
		c0.091-0.774,0.011-0.944-0.611-1.409l-1.641-1.229c-0.623-0.467-0.811-0.495-1.529-0.188l-1.873,0.803
		c-0.717,0.308-0.83,0.463-0.924,1.233l-0.258,2.05c-0.09,0.775-0.033,0.979,0.591,1.443l1.642,1.225
		c0.621,0.467,0.834,0.465,1.55,0.157l1.069-0.47l0.551-0.236l0.272-0.121C177.066,485.618,177.186,485.457,177.277,484.685z"/>
	<path fill="#FF77B5" d="M204.278,532.236l0.218-1.836c0.082-0.702,0.008-0.855-0.559-1.282l-1.49-1.108
		c-0.562-0.424-0.73-0.449-1.385-0.17l-1.701,0.729c-0.646,0.278-0.754,0.417-0.837,1.118l-0.233,1.86
		c-0.081,0.709-0.029,0.888,0.536,1.312l1.485,1.111c0.566,0.424,0.758,0.422,1.409,0.143l0.972-0.426l0.498-0.217l0.248-0.109
		C204.085,533.084,204.195,532.935,204.278,532.236z"/>
	<path fill="#6ADBCE" d="M191.62,473.448l0.645-5.556c0.254-2.133,0.031-2.604-1.684-3.881l-4.502-3.365
		c-1.711-1.279-2.227-1.359-4.199-0.514l-5.146,2.205c-1.963,0.84-2.281,1.268-2.533,3.387l-0.714,5.633
		c-0.246,2.135-0.087,2.686,1.624,3.965l4.508,3.365c1.711,1.283,2.284,1.277,4.264,0.434l2.937-1.285l1.511-0.658l0.752-0.327
		C191.04,476.008,191.368,475.566,191.62,473.448z"/>
	<path fill="#FF77B5" d="M186.185,524.205l0.562-4.809c0.219-1.85,0.025-2.256-1.457-3.361l-3.902-2.916
		c-1.484-1.108-1.93-1.18-3.641-0.445l-4.455,1.909c-1.701,0.729-1.979,1.101-2.198,2.936l-0.616,4.882
		c-0.215,1.848-0.074,2.326,1.41,3.438l3.901,2.913c1.479,1.106,1.98,1.104,3.69,0.37l2.545-1.111l1.309-0.568l0.65-0.288
		C185.683,526.426,185.966,526.045,186.185,524.205z"/>
	<path fill="#FFFFFF" d="M190.17,541.642l0.274-2.378c0.107-0.915,0.013-1.116-0.721-1.663l-1.93-1.441
		c-0.732-0.549-0.953-0.584-1.801-0.221l-2.204,0.945c-0.839,0.357-0.978,0.544-1.085,1.451l-0.307,2.411
		c-0.105,0.913-0.037,1.149,0.695,1.699l1.93,1.442c0.734,0.547,0.981,0.547,1.826,0.184l1.258-0.551l0.648-0.281l0.322-0.142
		C189.921,542.738,190.062,542.552,190.17,541.642z"/>
	<path fill="#FFDB56" d="M189.062,513.098l0.754-6.48c0.295-2.489,0.039-3.037-1.963-4.528l-5.256-3.931
		c-2-1.493-2.599-1.589-4.904-0.601l-6.006,2.574c-2.291,0.98-2.663,1.479-2.958,3.953l-0.829,6.574
		c-0.293,2.492-0.104,3.137,1.896,4.631l5.256,3.928c1.998,1.494,2.671,1.486,4.977,0.502l3.431-1.498l1.762-0.771l0.878-0.381
		C188.386,516.09,188.769,515.572,189.062,513.098z"/>
	<path fill="#FFFFFF" d="M213.189,526.787l0.69-5.94c0.271-2.284,0.034-2.784-1.8-4.153l-4.818-3.602
		c-1.834-1.371-2.381-1.453-4.496-0.553l-5.506,2.361c-2.1,0.9-2.441,1.355-2.713,3.621l-0.76,6.031
		c-0.27,2.283-0.097,2.873,1.737,4.244l4.818,3.602c1.833,1.367,2.447,1.363,4.562,0.459l3.143-1.378l1.615-0.702l0.805-0.354
		C212.568,529.523,212.919,529.054,213.189,526.787z"/>
	<path fill="#FFFFFF" d="M265.658,488.72l0.827-7.126c0.322-2.735,0.039-3.339-2.156-4.979l-5.781-4.315
		c-2.196-1.646-2.855-1.745-5.391-0.661l-6.604,2.831c-2.518,1.077-2.928,1.628-3.252,4.345l-0.912,7.23
		c-0.321,2.734-0.114,3.441,2.085,5.088l5.777,4.317c2.2,1.644,2.938,1.638,5.474,0.553l3.77-1.647l1.936-0.846l0.967-0.422
		C264.913,492.008,265.335,491.441,265.658,488.72z"/>
	<path opacity="0.3" fill="#FFDB56" enable-background="new    " d="M278.628,538.99l15.223-16.057
		c5.863-6.16,6.274-8.169,3.884-16.289l-6.277-21.349c-2.391-8.122-3.823-9.595-12.089-11.603l-21.535-5.227
		c-8.214-1.991-10.236-1.396-16.068,4.71l-15.622,16.165c-5.854,6.171-6.653,8.301-4.265,16.421l6.279,21.35
		c2.389,8.119,4.224,9.469,12.486,11.482l12.354,2.896l6.342,1.496l3.164,0.742C270.712,545.722,272.802,545.109,278.628,538.99z"/>
	<circle fill="#FFDB56" cx="274.718" cy="656.74" r="5.474"/>
	<path fill="#6ADBCE" d="M242.097,686.227l0.367-3.167c0.143-1.217,0.018-1.485-0.958-2.214l-2.569-1.917
		c-0.979-0.731-1.271-0.778-2.396-0.297l-2.937,1.26c-1.119,0.479-1.3,0.723-1.444,1.932l-0.405,3.215
		c-0.145,1.219-0.051,1.531,0.926,2.264l2.568,1.92c0.979,0.729,1.308,0.728,2.434,0.244l1.676-0.731l0.86-0.378l0.429-0.186
		C241.766,687.689,241.952,687.439,242.097,686.227z"/>
	<path fill="#6ADBCE" d="M308.152,657.594l0.312-2.705c0.125-1.038,0.016-1.27-0.818-1.894l-2.191-1.638
		c-0.834-0.624-1.086-0.664-2.047-0.252l-2.51,1.077c-0.955,0.408-1.109,0.616-1.232,1.646l-0.348,2.744
		c-0.12,1.042-0.043,1.31,0.792,1.935l2.191,1.64c0.837,0.623,1.117,0.623,2.079,0.209l1.432-0.626l0.732-0.32l0.369-0.158
		C307.868,658.844,308.029,658.625,308.152,657.594z"/>
	<path fill="#6ADBCE" d="M255.697,667.969l0.402-3.484c0.158-1.336,0.021-1.63-1.055-2.431l-2.823-2.111
		c-1.073-0.803-1.396-0.854-2.634-0.323l-3.229,1.384c-1.229,0.526-1.432,0.797-1.589,2.121l-0.447,3.533
		c-0.156,1.338-0.056,1.688,1.021,2.488l2.821,2.109c1.073,0.803,1.435,0.799,2.675,0.27l1.842-0.806l0.945-0.413l0.473-0.204
		C255.329,669.57,255.536,669.295,255.697,667.969z"/>
	<path fill="#FF77B5" d="M259.021,654.306l0.361-3.096c0.139-1.189,0.018-1.451-0.939-2.164l-2.51-1.875
		c-0.956-0.717-1.24-0.761-2.344-0.288l-2.868,1.229c-1.095,0.47-1.274,0.707-1.414,1.893l-0.396,3.141
		c-0.143,1.188-0.052,1.496,0.904,2.211l2.512,1.876c0.957,0.714,1.274,0.71,2.377,0.241l1.639-0.719l0.842-0.367l0.419-0.186
		C258.698,655.733,258.882,655.488,259.021,654.306z"/>
	<path fill="#FF77B5" d="M283.962,703.943l0.24-2.031c0.094-0.777,0.01-0.948-0.617-1.418l-1.646-1.23
		c-0.629-0.469-0.813-0.498-1.537-0.188l-1.883,0.809c-0.719,0.308-0.833,0.464-0.927,1.235l-0.261,2.062
		c-0.088,0.776-0.033,0.979,0.596,1.449l1.646,1.229c0.627,0.469,0.838,0.466,1.561,0.157l1.073-0.47l0.554-0.241l0.273-0.121
		C283.753,704.883,283.872,704.719,283.962,703.943z"/>
	<path fill="#FFFFFF" d="M311.679,642.098l0.275-2.36c0.104-0.906,0.014-1.104-0.717-1.648l-1.912-1.43
		c-0.729-0.546-0.945-0.58-1.784-0.219l-2.187,0.938c-0.834,0.354-0.972,0.536-1.078,1.438l-0.303,2.396
		c-0.105,0.902-0.039,1.143,0.69,1.683l1.913,1.431c0.728,0.544,0.973,0.542,1.812,0.186l1.247-0.546l0.64-0.28l0.322-0.139
		C311.435,643.184,311.572,642.996,311.679,642.098z"/>
	<path fill="#FFDB56" d="M286.859,514.506l3.87-4.084c1.491-1.566,1.598-2.076,0.985-4.142l-1.596-5.427
		c-0.605-2.066-0.973-2.441-3.07-2.949l-5.479-1.33c-2.088-0.507-2.603-0.354-4.084,1.197l-3.973,4.109
		c-1.488,1.567-1.691,2.109-1.084,4.176l1.598,5.426c0.607,2.064,1.073,2.408,3.178,2.919l3.139,0.735l1.613,0.383l0.804,0.188
		C284.847,516.215,285.376,516.057,286.859,514.506z"/>
	<path fill="#6ADBCE" d="M211.474,212.64l1.119-9.61c0.434-3.69,0.051-4.504-2.912-6.716l-7.795-5.824
		c-2.965-2.217-3.852-2.354-7.27-0.891l-8.909,3.813c-3.396,1.456-3.946,2.196-4.388,5.86l-1.229,9.754
		c-0.432,3.69-0.153,4.646,2.811,6.861l7.795,5.822c2.968,2.219,3.963,2.207,7.381,0.746l5.086-2.225l2.607-1.143l1.305-0.564
		C210.469,217.07,211.038,216.31,211.474,212.64z"/>
	<path opacity="0.7" fill="#FFDB56" enable-background="new    " d="M211.343,165.113l4.463-38.384
		c1.746-14.749,0.219-17.987-11.623-26.829l-31.137-23.266c-11.84-8.854-15.387-9.405-29.035-3.559l-35.58,15.245
		c-13.562,5.815-15.768,8.767-17.52,23.406l-4.914,38.954c-1.725,14.75-0.608,18.562,11.234,27.414l31.129,23.262
		c11.846,8.853,15.818,8.812,29.479,2.979l20.301-8.889l10.429-4.549l5.202-2.272C207.331,182.808,209.603,179.767,211.343,165.113z
		"/>
	<path opacity="0.7" fill="#FF77B5" enable-background="new    " d="M185.021,230.353l0.572-4.914
		c0.225-1.891,0.027-2.303-1.487-3.437l-3.983-2.979c-1.521-1.131-1.975-1.203-3.723-0.456l-4.555,1.954
		c-1.735,0.746-2.018,1.124-2.242,2.996l-0.629,4.988c-0.222,1.889-0.078,2.375,1.438,3.511l3.984,2.978
		c1.518,1.134,2.025,1.129,3.773,0.381l2.6-1.139l1.336-0.58l0.666-0.291C184.508,232.619,184.798,232.229,185.021,230.353z"/>
	<path fill="#FFDB56" d="M187.566,218.624l0.656-5.624c0.254-2.162,0.031-2.637-1.705-3.933l-4.562-3.408
		c-1.735-1.296-2.254-1.38-4.255-0.521l-5.216,2.232c-1.986,0.854-2.312,1.285-2.565,3.429l-0.72,5.712
		c-0.255,2.16-0.091,2.72,1.646,4.018l4.561,3.408c1.734,1.297,2.319,1.291,4.32,0.438l2.977-1.305l1.527-0.666l0.764-0.334
		C186.98,221.217,187.312,220.771,187.566,218.624z"/>
	<path opacity="0.6" fill="#FF0038" enable-background="new    " d="M500.329,278.34l0.623-5.35c0.244-2.058,0.03-2.508-1.618-3.739
		l-4.343-3.242c-1.646-1.231-2.145-1.312-4.047-0.495l-4.959,2.127c-1.889,0.81-2.199,1.219-2.438,3.26l-0.688,5.431
		c-0.241,2.056-0.085,2.587,1.565,3.82l4.338,3.241c1.649,1.232,2.207,1.229,4.106,0.416l2.829-1.239l1.457-0.634l0.725-0.318
		C499.771,280.804,500.089,280.384,500.329,278.34z"/>
	<path opacity="0.6" fill="#FF0038" enable-background="new    " d="M496.073,233.09l1.364-11.736
		c0.531-4.514,0.066-5.503-3.553-8.205l-9.523-7.116c-3.621-2.706-4.707-2.877-8.881-1.088l-10.879,4.663
		c-4.15,1.776-4.822,2.68-5.359,7.158l-1.502,11.913c-0.525,4.511-0.188,5.677,3.438,8.385l9.52,7.11
		c3.623,2.705,4.838,2.695,9.016,0.909l6.213-2.715l3.188-1.392l1.592-0.695C494.847,238.502,495.541,237.571,496.073,233.09z"/>
	<path fill="#FFDB56" d="M479.685,322.881l0.709-6.105c0.277-2.341,0.033-2.855-1.848-4.262l-4.951-3.699
		c-1.883-1.408-2.445-1.495-4.615-0.566l-5.656,2.426c-2.155,0.924-2.507,1.393-2.786,3.721l-0.778,6.195
		c-0.273,2.342-0.1,2.946,1.786,4.354l4.946,3.699c1.882,1.406,2.516,1.398,4.688,0.473l3.229-1.413l1.658-0.724l0.828-0.357
		C479.046,325.689,479.406,325.207,479.685,322.881z"/>
	<path fill="#FFDB56" d="M462.577,262.277l0.711-6.104c0.275-2.343,0.031-2.855-1.849-4.263l-4.95-3.699
		c-1.885-1.405-2.445-1.495-4.614-0.563l-5.657,2.421c-2.156,0.927-2.506,1.396-2.785,3.722l-0.781,6.194
		c-0.271,2.344-0.096,2.95,1.787,4.356l4.949,3.698c1.882,1.405,2.512,1.399,4.686,0.475l3.229-1.412l1.659-0.726l0.824-0.358
		C461.941,265.09,462.304,264.605,462.577,262.277z"/>
	<path fill="#FFFFFF" d="M291.509,695.584l0.57-4.891c0.221-1.878,0.023-2.292-1.482-3.418l-3.967-2.965
		c-1.508-1.126-1.962-1.198-3.701-0.453l-4.533,1.943c-1.727,0.74-2.006,1.119-2.229,2.979l-0.624,4.964
		c-0.223,1.879-0.078,2.363,1.432,3.49l3.965,2.967c1.511,1.127,2.018,1.121,3.755,0.378l2.586-1.131l1.33-0.582l0.663-0.288
		C290.997,697.84,291.286,697.451,291.509,695.584z"/>
	<path fill="#FFDB56" d="M420.865,334.32l0.378-3.248c0.147-1.248,0.02-1.52-0.984-2.27l-2.631-1.967
		c-1.003-0.75-1.305-0.801-2.457-0.306l-3.01,1.29c-1.146,0.493-1.336,0.743-1.482,1.98l-0.415,3.296
		c-0.147,1.247-0.052,1.571,0.952,2.317l2.633,1.969c1,0.748,1.34,0.745,2.492,0.252l1.717-0.75l0.883-0.39l0.441-0.188
		C420.527,335.815,420.721,335.557,420.865,334.32z"/>
	<path fill="#6ADBCE" d="M229.187,759.215l0.32-2.758c0.127-1.059,0.018-1.291-0.836-1.928l-2.232-1.67
		c-0.854-0.634-1.105-0.674-2.086-0.254l-2.555,1.094c-0.975,0.419-1.134,0.629-1.259,1.684l-0.354,2.797
		c-0.124,1.058-0.046,1.332,0.808,1.969l2.232,1.669c0.852,0.635,1.137,0.635,2.116,0.214l1.458-0.637l0.75-0.327l0.375-0.162
		C228.898,760.483,229.064,760.265,229.187,759.215z"/>
	<path fill="#FFDB56" d="M271.038,808.361l0.506-4.35c0.199-1.674,0.023-2.041-1.316-3.043l-3.531-2.643
		c-1.342-1.002-1.744-1.062-3.294-0.398l-4.032,1.726c-1.537,0.659-1.786,0.996-1.984,2.656l-0.557,4.417
		c-0.195,1.671-0.07,2.104,1.271,3.107l3.531,2.639c1.342,1.004,1.793,0.998,3.344,0.338l2.3-1.01l1.185-0.516l0.592-0.259
		C270.585,810.367,270.839,810.025,271.038,808.361z"/>
	<path fill="#FFDB56" d="M239.013,739.754l0.305-2.604c0.117-1.003,0.016-1.221-0.791-1.822l-2.11-1.579
		c-0.806-0.6-1.046-0.64-1.974-0.237l-2.414,1.032c-0.92,0.396-1.067,0.597-1.188,1.59l-0.336,2.644
		c-0.116,1-0.041,1.261,0.764,1.86l2.114,1.579c0.804,0.603,1.073,0.598,2,0.202l1.377-0.604l0.708-0.308l0.354-0.154
		C238.743,740.955,238.896,740.75,239.013,739.754z"/>
	<path fill="#FFFFFF" d="M48.99,527.492l0.309-2.654c0.12-1.023,0.016-1.244-0.803-1.858l-2.154-1.609
		c-0.821-0.61-1.068-0.65-2.012-0.243l-2.463,1.054c-0.939,0.403-1.096,0.605-1.215,1.62l-0.34,2.695
		c-0.121,1.021-0.041,1.284,0.777,1.898l2.154,1.611c0.818,0.607,1.096,0.604,2.039,0.203l1.404-0.615l0.725-0.316l0.357-0.152
		C48.712,528.719,48.87,528.51,48.99,527.492z"/>
	<circle fill="#FFFFFF" cx="494.698" cy="237.064" r="3.581"/>
	<path fill="#FFFFFF" d="M37.991,439.181l0.307-2.656c0.121-1.021,0.016-1.247-0.803-1.855l-2.156-1.611
		c-0.819-0.612-1.064-0.65-2.01-0.246l-2.463,1.056c-0.938,0.403-1.094,0.604-1.215,1.619l-0.34,2.697
		c-0.119,1.021-0.043,1.285,0.777,1.896l2.154,1.611c0.816,0.613,1.096,0.608,2.041,0.205l1.404-0.616l0.724-0.313l0.356-0.156
		C37.712,440.407,37.87,440.195,37.991,439.181z"/>
	<path fill="#FFFFFF" d="M473.986,255.09c-1.963-0.258-3.344-2.057-3.086-4.019c0.258-1.96,2.055-3.341,4.015-3.084
		c1.966,0.259,3.344,2.057,3.088,4.018C477.741,253.967,475.946,255.345,473.986,255.09z"/>
	<path fill="#FFDB56" d="M463.232,313.766l0.75-6.466c0.295-2.484,0.037-3.027-1.956-4.521l-5.244-3.918
		c-1.993-1.489-2.591-1.582-4.89-0.599l-5.992,2.563c-2.285,0.98-2.654,1.479-2.949,3.944l-0.828,6.561
		c-0.29,2.481-0.102,3.124,1.893,4.617l5.242,3.916c1.993,1.49,2.664,1.484,4.966,0.502l3.42-1.498l1.756-0.766l0.874-0.383
		C462.556,316.746,462.938,316.232,463.232,313.766z"/>
	<path opacity="0.6" fill="#FF0038" enable-background="new    " d="M221.56,739.25l0.785-6.76c0.305-2.6,0.037-3.17-2.047-4.727
		l-5.484-4.098c-2.088-1.562-2.711-1.656-5.113-0.628l-6.267,2.687c-2.39,1.022-2.774,1.545-3.089,4.121l-0.863,6.86
		c-0.306,2.599-0.107,3.271,1.979,4.829l5.48,4.099c2.084,1.558,2.786,1.551,5.193,0.522l3.571-1.562l1.841-0.807l0.918-0.396
		C220.852,742.367,221.253,741.831,221.56,739.25z"/>
	<path fill="#FFFFFF" d="M463.164,272.556l0.608-5.241c0.24-2.021,0.031-2.46-1.586-3.67l-4.255-3.183
		c-1.618-1.208-2.104-1.282-3.97-0.482l-4.861,2.085c-1.855,0.792-2.156,1.193-2.396,3.196l-0.669,5.322
		c-0.236,2.017-0.084,2.537,1.532,3.745l4.253,3.183c1.619,1.209,2.166,1.199,4.033,0.402l2.771-1.211l1.427-0.624l0.711-0.31
		C462.618,274.976,462.929,274.562,463.164,272.556z"/>
	<path opacity="0.7" fill="#FFDB56" enable-background="new    " d="M342.3,749.2l2.795-24.038
		c1.094-9.234,0.135-11.268-7.281-16.805l-19.498-14.57c-7.416-5.543-9.635-5.891-18.188-2.227l-22.281,9.547
		c-8.492,3.646-9.873,5.493-10.971,14.658l-3.078,24.396c-1.08,9.238-0.384,11.627,7.034,17.17l19.497,14.568
		c7.416,5.543,9.904,5.521,18.461,1.865l12.715-5.562l6.533-2.854l3.257-1.424C339.786,760.283,341.207,758.38,342.3,749.2z"/>
	<path opacity="0.6" fill="#FF0038" enable-background="new    " d="M540.476,180.422l5.764-49.547
		c2.25-19.038,0.279-23.22-15.007-34.635l-40.193-30.028c-15.279-11.433-19.859-12.146-37.479-4.593l-45.928,19.678
		c-17.509,7.511-20.354,11.317-22.619,30.215l-6.34,50.281c-2.229,19.045-0.785,23.969,14.502,35.395l40.186,30.024
		c15.287,11.427,20.418,11.376,38.053,3.843l26.207-11.471l13.463-5.873l6.715-2.936
		C535.298,203.264,538.23,199.338,540.476,180.422z"/>
	<path opacity="0.6" fill="#FF0038" enable-background="new    " d="M455.062,282.355l0.301-2.591
		c0.119-0.995,0.018-1.212-0.783-1.812l-2.104-1.569c-0.799-0.6-1.039-0.638-1.961-0.24l-2.4,1.028
		c-0.916,0.393-1.064,0.592-1.183,1.58l-0.332,2.628c-0.116,0.997-0.042,1.257,0.757,1.854l2.104,1.568
		c0.8,0.6,1.065,0.598,1.987,0.201l1.373-0.602l0.701-0.309l0.354-0.149C454.789,283.552,454.945,283.345,455.062,282.355z"/>
	<path opacity="0.6" fill="#FF0038" enable-background="new    " d="M177.691,243.189l0.684-5.859
		c0.267-2.251,0.028-2.746-1.775-4.098l-4.753-3.549c-1.808-1.354-2.349-1.438-4.433-0.545l-5.436,2.324
		c-2.068,0.893-2.405,1.342-2.672,3.574l-0.75,5.948c-0.265,2.251-0.096,2.833,1.714,4.185l4.753,3.553
		c1.811,1.35,2.414,1.345,4.5,0.455l3.103-1.357l1.591-0.695l0.793-0.346C177.077,245.892,177.425,245.427,177.691,243.189z"/>
	<path opacity="0.6" fill="#FF0038" enable-background="new    " d="M209.479,281.445l-2.309-9.463
		c-1.019-4.146-1.513-4.562-5.762-4.881c0,0-5.923-0.44-9.723-0.722c-4.153-0.307-4.7,0.021-6.259,3.839l-3.74,9.142
		c-1.583,3.873-1.432,4.498,1.819,7.252l7.367,6.239c3.255,2.755,3.896,2.802,7.453,0.6l8.4-5.197
		C210.235,286.086,210.475,285.5,209.479,281.445z"/>
	<path opacity="0.6" fill="#FF0038" enable-background="new    " d="M272.686,700.488l-2.901-11.885
		c-1.275-5.207-1.898-5.73-7.236-6.129c0,0-7.436-0.555-12.207-0.904c-5.218-0.386-5.9,0.026-7.859,4.822l-4.695,11.476
		c-1.986,4.863-1.798,5.646,2.284,9.106l9.252,7.836c4.089,3.459,4.894,3.518,9.358,0.752l10.551-6.528
		C273.63,706.315,273.934,705.578,272.686,700.488z"/>
	<path opacity="0.6" fill="#FF0038" enable-background="new    " d="M213.763,617.459l0.939-8.064
		c0.363-3.1,0.043-3.781-2.445-5.639l-6.543-4.893c-2.488-1.857-3.234-1.977-6.104-0.748l-7.476,3.207
		c-2.854,1.223-3.314,1.844-3.681,4.918l-1.033,8.188c-0.361,3.098-0.13,3.898,2.357,5.758l6.543,4.891
		c2.488,1.858,3.324,1.854,6.195,0.627l4.268-1.87l2.19-0.953l1.093-0.479C212.919,621.177,213.396,620.537,213.763,617.459z"/>
	<path fill="#FFDB56" d="M265.618,684.095l0.773-6.667c0.303-2.562,0.037-3.124-2.019-4.659l-5.411-4.04
		c-2.059-1.54-2.673-1.636-5.043-0.62l-6.179,2.646c-2.356,1.014-2.739,1.524-3.046,4.066l-0.854,6.768
		c-0.301,2.562-0.105,3.226,1.949,4.764l5.41,4.039c2.057,1.537,2.747,1.531,5.119,0.519l3.526-1.545l1.812-0.79l0.901-0.395
		C264.921,687.174,265.316,686.642,265.618,684.095z"/>
	<path fill="#FFFFFF" d="M355.359,696.429l0.332-2.842c0.128-1.094,0.016-1.33-0.859-1.986l-2.309-1.721
		c-0.877-0.655-1.139-0.696-2.147-0.268l-2.634,1.131c-1.008,0.432-1.17,0.648-1.3,1.732l-0.362,2.885
		c-0.127,1.092-0.049,1.373,0.834,2.031l2.304,1.719c0.878,0.656,1.171,0.656,2.183,0.225l1.504-0.659l0.771-0.335l0.383-0.17
		C355.062,697.74,355.228,697.516,355.359,696.429z"/>
	<path fill="#FFFFFF" d="M15.009,414.517l0.308-2.655c0.121-1.021,0.017-1.247-0.802-1.856l-2.156-1.609
		c-0.816-0.612-1.065-0.652-2.01-0.246l-2.464,1.055c-0.938,0.404-1.094,0.607-1.213,1.619l-0.34,2.697
		c-0.118,1.021-0.041,1.285,0.776,1.9l2.154,1.607c0.817,0.611,1.096,0.607,2.041,0.204l1.401-0.614l0.726-0.314l0.358-0.156
		C14.732,415.744,14.889,415.534,15.009,414.517z"/>
	<path fill="#FFFFFF" d="M8.786,477.619l0.309-2.652c0.121-1.023,0.016-1.248-0.804-1.857l-2.155-1.612
		c-0.819-0.609-1.066-0.649-2.011-0.242l-2.462,1.056c-0.939,0.4-1.094,0.604-1.213,1.617l-0.342,2.695
		c-0.121,1.021-0.043,1.285,0.776,1.898l2.154,1.611c0.817,0.607,1.097,0.605,2.041,0.205l1.403-0.617l0.722-0.314l0.36-0.154
		C8.509,478.845,8.666,478.636,8.786,477.619z"/>
	<path opacity="0.6" fill="#FF0038" enable-background="new    " d="M189.595,305.478l0.306-2.654
		c0.121-1.023,0.018-1.246-0.804-1.859l-2.154-1.607c-0.817-0.612-1.062-0.65-2.012-0.246l-2.46,1.056
		c-0.94,0.402-1.093,0.606-1.212,1.618l-0.343,2.698c-0.118,1.021-0.043,1.284,0.776,1.896l2.154,1.611
		c0.82,0.61,1.096,0.61,2.043,0.205l1.402-0.615l0.724-0.313l0.36-0.157C189.316,306.705,189.474,306.494,189.595,305.478z"/>
	<path fill="#FFDB56" d="M375.615,554.678l0.312-2.655c0.12-1.023,0.015-1.246-0.804-1.856l-2.156-1.61
		c-0.816-0.611-1.064-0.65-2.01-0.244l-2.463,1.056c-0.938,0.403-1.094,0.604-1.215,1.617l-0.34,2.698
		c-0.119,1.021-0.041,1.284,0.777,1.896l2.154,1.61c0.818,0.613,1.098,0.607,2.043,0.205l1.402-0.615l0.725-0.314l0.357-0.156
		C375.339,555.906,375.495,555.693,375.615,554.678z"/>
	<path fill="#FFDB56" d="M139.282,756.219l0.398-3.449c0.157-1.328,0.021-1.619-1.044-2.412l-2.8-2.094
		c-1.065-0.795-1.385-0.844-2.611-0.319l-3.197,1.371c-1.221,0.522-1.418,0.788-1.573,2.104l-0.444,3.504
		c-0.152,1.325-0.052,1.666,1.012,2.463l2.801,2.092c1.062,0.797,1.422,0.791,2.648,0.269l1.824-0.801l0.938-0.408l0.473-0.201
		C138.921,757.809,139.125,757.537,139.282,756.219z"/>
	<path fill="#6ADBCE" d="M168.94,708.176l0.452-3.883c0.176-1.49,0.021-1.818-1.178-2.715l-3.146-2.352
		c-1.197-0.896-1.557-0.951-2.938-0.359l-3.602,1.541c-1.369,0.588-1.594,0.889-1.771,2.367l-0.499,3.939
		c-0.174,1.491-0.061,1.879,1.137,2.771l3.148,2.354c1.199,0.894,1.6,0.892,2.979,0.302l2.055-0.899l1.056-0.46l0.528-0.229
		C168.534,709.965,168.763,709.656,168.94,708.176z"/>
	<path opacity="0.7" fill="#6ADBCE" enable-background="new    " d="M364.983,388.582l-4.404-18.046
		c-1.938-7.902-2.884-8.695-10.989-9.304c0,0-11.285-0.842-18.532-1.376c-7.923-0.585-8.958,0.042-11.933,7.322l-7.13,17.422
		c-3.021,7.386-2.73,8.575,3.469,13.83l14.047,11.896c6.204,5.249,7.426,5.338,14.21,1.141l16.017-9.91
		C366.421,397.427,366.877,396.309,364.983,388.582z"/>
	<path opacity="0.7" fill="#6ADBCE" enable-background="new    " d="M311.327,708.176l-3.758-15.383
		c-1.65-6.736-2.457-7.414-9.365-7.934c0,0-9.622-0.719-15.8-1.172c-6.755-0.498-7.636,0.037-10.171,6.242l-6.08,14.853
		c-2.568,6.294-2.322,7.312,2.959,11.785l11.976,10.146c5.29,4.477,6.331,4.551,12.114,0.971l13.652-8.448
		C312.554,715.717,312.943,714.761,311.327,708.176z"/>
	<path opacity="0.7" fill="#6ADBCE" enable-background="new    " d="M268.271,645.578l-3.25-13.309
		c-1.429-5.832-2.125-6.416-8.104-6.865c0,0-8.323-0.622-13.669-1.014c-5.846-0.436-6.607,0.029-8.803,5.4l-5.262,12.854
		c-2.227,5.443-2.012,6.324,2.562,10.199l10.36,8.773c4.577,3.873,5.479,3.938,10.481,0.844l11.814-7.312
		C269.331,652.101,269.669,651.278,268.271,645.578z"/>
</g>
</svg>
