<?xml version="1.0" encoding="utf-8"?>
<!-- Generator: Adobe Illustrator 16.0.0, SVG Export Plug-In . SVG Version: 6.00 Build 0)  -->
<!DOCTYPE svg PUBLIC "-//W3C//DTD SVG 1.1//EN" "http://www.w3.org/Graphics/SVG/1.1/DTD/svg11.dtd">
<svg version="1.1" id="圖層_1" xmlns="http://www.w3.org/2000/svg" xmlns:xlink="http://www.w3.org/1999/xlink" x="0px" y="0px"
	 width="81.95px" height="87.15px" viewBox="0 0 81.95 87.15" enable-background="new 0 0 81.95 87.15" xml:space="preserve">
<g opacity="0.8">
	<path fill="#FEDA61" d="M81.25,26.2c0.833,1.934,0.982,5.2,0.449,9.8l-2.8,24.05c-0.533,4.567-1.433,7.7-2.7,9.4
		c-1.267,1.7-4.033,3.467-8.3,5.3L45.4,84.6c-4.333,1.866-7.55,2.699-9.65,2.5c-2.233-0.2-5.167-1.65-8.8-4.351l-19.5-14.6
		c-3.633-2.733-5.867-5.134-6.7-7.2C-0.017,59.016-0.133,55.7,0.4,51L3.5,26.6c0.567-4.567,1.467-7.7,2.7-9.4
		c1.267-1.667,4.017-3.417,8.25-5.25l22.3-9.55c4.267-1.833,7.433-2.617,9.5-2.351C48.317,0.283,51.217,1.8,54.95,4.6l19.5,14.6
		C78.15,21.967,80.417,24.3,81.25,26.2"/>
</g>
</svg>
